<svg id="18ac4fcc-8258-4741-8ae4-7373eedbe2e6" data-name="Layer 1" xmlns="http://www.w3.org/2000/svg" viewBox="0 0 268.56 72"><title>blown-fuse-logo</title><path d="M1,73.93v-72H269.56v72ZM206.92,10.32c.72.12.83-.33.74-.86a.62.62,0,0,0-.44-.42.61.61,0,0,0-.46.39,3.26,3.26,0,0,0,.18.91l-.06.05Zm22.85-7.73a7.21,7.21,0,0,1-.15,1q-.92,2.9-1.86,5.77c-.22.68-.46,1.36-.68,2-.32,1-.32,1-1.32,1H43.61a.54.54,0,0,1-.61-.57,9.5,9.5,0,0,0-.17-1.42c-.58-2.57-1.18-5.13-1.77-7.69-4.1-.27-38-.13-39,.19.36.45.7.89,1.05,1.31L5.8,7.34l5,6q1.59,1.92,3.2,3.83c1.32,1.58,2.65,3.14,4,4.72.64.76,1.27,1.53,1.86,2.32A.87.87,0,0,1,20,25c-.51,1.21-1.06,2.39-1.61,3.57s-1.28,2.63-1.89,4Q14.71,36.29,13,40.09c-.25.54-.44,1.1-.69,1.63-.67,1.44-1.36,2.88-2,4.32a5.58,5.58,0,0,0-.2.81h19.5c1,0,1,0,1.13.8q.46,3.42,1,6.82c.2,1.37.29,1.43,1.64,1.43H239.58a.54.54,0,0,0,.61-.57,14,14,0,0,1,.12-1.44c.29-1.83.65-3.65.89-5.49.19-1.47.2-1.54,1.63-1.54h17c.41,0,.82,0,1.32-.07l-9.3-22.7c.92-1,1.85-2,2.75-3,1.44-1.63,2.85-3.3,4.3-4.93,1-1.1,2-2.14,3-3.22,1.8-2,3.55-4.06,5.4-6a4.18,4.18,0,0,0,1.3-3.63c-.07-.51-.26-.71-.75-.69-.28,0-.56,0-.84,0H229.77Zm36.85,69.09c-.57,0-1.12-.07-1.66-.07H7l-1.55,0a.54.54,0,0,0-.59.59c0,.73.1.91.86,1,.23,0,.48,0,.72,0H265.23c.24,0,.48,0,.72,0,.59,0,.79-.25.75-.79C266.68,72.18,266.65,72,266.62,71.68ZM135.75,60.32H6.41a3.81,3.81,0,0,0-1.07,0,.83.83,0,0,0-.49.53c-.13.69.08.91.83,1H265.06c.28,0,.57,0,.84,0,.54,0,.8-.18.81-.76s-.25-.79-.79-.76H135.75ZM11.9,67.09a2.86,2.86,0,0,0,.67.1c2.68-.25,5.39-.14,8.07-.61a42,42,0,0,1,4.63-.31c2.06-.13,4.15.2,6.18-.38.08,0,.2.06.39.14a28.52,28.52,0,0,0-3.71,2.36,1.53,1.53,0,0,0,.81.22c.92,0,1.83-.09,2.75-.14,1.82-.1,3.63,0,5.47-.24,2.19-.3,4.44,0,6.67-.32,1.5-.19,3-.13,4.54-.17h1.34c-.8,1.11-2.19,1.13-2.86,2.25a6.59,6.59,0,0,0,.77.07c1.48,0,2.94-.08,4.41-.22,2.88-.28,5.78,0,8.69-.33a77.38,77.38,0,0,1,8.49-.22l11.38-.15a4.37,4.37,0,0,0,.7-.15A9.87,9.87,0,0,0,79,68.51c-.36,0-.72,0-1.08-.05a31.06,31.06,0,0,1-5.38-.13c-1.69-.32-3.43.1-5-.58-3.07-.11-6.14-.24-9.2-.3a12.13,12.13,0,0,1-2.4-.43c1-1,2.42-1.32,3.27-2.38a21.93,21.93,0,0,0-3.26.11c-1.21.12-2.42.32-3.64.43s-2.22.11-3.33.18c-.87.06-1.74.14-2.61.23-1.38.15-2.75.36-4.13.49-2,.19-4,.33-6,.49,1.18-1,2.72-1.49,4-2.72-.5,0-.78,0-1,0l-6.48.75c-.71.08-1.42.12-2.13.21-.94.11-1.87.28-2.81.37-2.29.23-4.59.41-6.88.64-1.77.19-3.54.43-5.3.64-1.14.13-2.27.23-3.4.36C12,66.83,12,66.94,11.9,67.09Zm243.42-1V65.9c-.91-.12-1.83-.27-2.74-.37a40.08,40.08,0,0,1-4.27-.4,30.11,30.11,0,0,0-4-.51c-.79-.05-1.59-.09-2.37-.21a19.4,19.4,0,0,0-2.55-.49,61.93,61.93,0,0,1-7.2-.8,4.2,4.2,0,0,0-1,.16l4,2.72a15.56,15.56,0,0,1-3-.19c-1.26-.15-2.52-.28-3.78-.4-1.62-.14-3.23-.24-4.84-.54-2.14-.39-4.35-.18-6.51-.65a29.77,29.77,0,0,0-4.14-.38A4.13,4.13,0,0,0,212,64l3.81,2.64c-.88.12-1.57.27-2.27.3-2.42.1-4.83.17-7.25.44-2.64.28-5.33.24-8,.37-1.93.09-3.87.22-5.81.35-.14,0-.27.17-.61.39,1.27.13,2.29.27,3.31.32,2.9.14,5.8,0,8.71.24,4.14.32,8.31.17,12.46.24,1.44,0,2.87.11,4.31.14,1.18,0,2.36,0,3.54,0l0-.21-2.74-2c.26-.07.38-.15.48-.13,1.92.41,3.87,0,5.82.38a35.92,35.92,0,0,0,5.6.29c2.24.07,4.47.1,6.71.16a5.8,5.8,0,0,1,.81.16,4,4,0,0,0,2.32-.09l-3.68-2.56,3.11.1c1.08,0,2.16,0,3.23.14,1.41.14,2.81.45,4.22.55s3,.08,4.56.09A2.82,2.82,0,0,0,255.32,66.14ZM121,8.49c-.56-1.07-1-1.83-1.38-2.61-.29-.58-.8-.43-1.26-.39s-.46.46-.46.82c0,1,0,1.92,0,2.88,0,.36,0,.79.48.81s.49-.49.5-.86c0-.58,0-1.16,0-2a4.13,4.13,0,0,1,.53.62c.27.57.5,1.16.79,1.72.38.73,1,.75,1.49.06.1-.16.13-.37.22-.55.27-.54.56-1.07.84-1.61A11,11,0,0,1,123,9.46a.76.76,0,0,0,.45.55c.39.1.59-.18.59-.56V6.1c0-.45-.22-.63-.67-.65a1,1,0,0,0-1.12.69C121.9,6.88,121.49,7.58,121,8.49Zm36,58.42-.3,0c-.33-.75-.63-1.51-1-2.24a.89.89,0,0,0-.63-.38c-.16,0-.42.2-.5.38-.38.86-.72,1.73-1.09,2.65a8.13,8.13,0,0,1-.4-.85c-.15-.5-.23-1-.4-1.5s-.65-.9-1.06-.68-.22.71-.1,1c.35,1,.75,2,1.18,3a.88.88,0,0,0,.56.5.84.84,0,0,0,.66-.38,16,16,0,0,0,.6-1.55A8.06,8.06,0,0,1,155,66a3.8,3.8,0,0,1,.89,2.07.86.86,0,0,0,.92.76.8.8,0,0,0,.86-.66c.28-.86.64-1.7.93-2.55a5.77,5.77,0,0,0,.23-1.24s-.54-.22-.62-.14a3.53,3.53,0,0,0-.69,1C157.31,65.79,157.18,66.36,157,66.91ZM67.94,10c.55,0,1.11,0,1.67,0,.34,0,.66-.07.69-.49S70,9,69.58,9c-.67,0-1.35,0-2,0-.35,0-.63-.1-.61-.54s.31-.5.66-.5c.52,0,1,0,1.55,0,.36,0,.93.17.91-.45s-.53-.34-.86-.35H67.53c-.36,0-.7-.08-.61-.5,0-.17.37-.38.58-.4.75,0,1.51,0,2.27-.06.16,0,.32-.25.47-.39-.15-.09-.31-.27-.46-.27-1.2,0-2.39,0-3.59,0-.46,0-.61.29-.6.7s0,1,0,1.56C65.63,10.41,65.2,10,67.94,10Zm37.87,56.5a15.48,15.48,0,0,0,0,1.67c0,.21.27.55.43.56a6,6,0,0,0,3.18-.26,2.18,2.18,0,0,0,1-1.07c.25-.73-.81-1.35-.36-2.2,0-.09-.18-.33-.29-.49-.39-.59-1-.58-1.6-.57C105.27,64.22,105.88,63.88,105.81,66.54ZM95.37,7.41c.3-.32.75-.64.25-1.16-.32-.33-.47-.83-1.08-.8-.88,0-1.75,0-2.63,0-.38,0-.61.16-.61.56,0,1.15,0,2.31,0,3.46,0,.4.24.57.61.56a7.71,7.71,0,0,0,3-.32C96.27,9.16,96.44,8.44,95.37,7.41Zm56.43,0A1.15,1.15,0,0,0,151,5.49a25,25,0,0,0-3.35,0c-.17,0-.47.25-.47.39,0,1.24-.05,2.48,0,3.71,0,.16.37.42.57.42a.8.8,0,0,0,.6-.4,4.88,4.88,0,0,0,.07-.95.69.69,0,0,1,.28-.46,1.76,1.76,0,0,1,2.32.93c.09.22.14.52.31.63a2.53,2.53,0,0,0,.85.22,2,2,0,0,0,.09-.63C152.19,8.78,152,8.22,151.8,7.44Zm62.29-.62c.8,1,1.47,1.79,2.15,2.6a2.07,2.07,0,0,0,.54.48c.66.39,1.15.12,1.17-.65,0-1,0-2,0-3,0-.36,0-.75-.5-.77s-.52.37-.54.73a6,6,0,0,1-.22,2.15c-.22-.11-.3-.31-.42-.45-.63-.73-1.27-1.44-1.91-2.15a1,1,0,0,0-1.2-.2c-.19.1-.29.52-.3.8,0,1,0,2,0,3,0,.43.17.68.63.69s.61-.26.61-.68C214.09,8.58,214.09,7.79,214.09,6.82Zm-46.27.91h0V9.41c0,.45.23.59.66.65a7.39,7.39,0,0,0,3.68-.7,1.18,1.18,0,0,0,.49-.5,2.22,2.22,0,0,0-1.76-3.38c-.8-.07-1.59,0-2.39,0-.51,0-.71.24-.69.73S167.82,7.22,167.82,7.73Zm37.46-.28c.66-1.21.27-1.95-1-2-.76,0-1.52,0-2.28,0-.42,0-.68.15-.68.62,0,1.12,0,2.24,0,3.36,0,.2.27.55.44.56a5.26,5.26,0,0,0,3.58-.59c.72-.49.79-.83.25-1.56A3.91,3.91,0,0,0,205.28,7.45Zm-27,2.75L180,9.68a2,2,0,0,0,.54-3.58,4,4,0,0,0-4.32,0,2,2,0,0,0,.17,3.35A16.26,16.26,0,0,0,178.32,10.2Zm-39.47-.06V10c.59,0,1.19,0,1.79,0a.44.44,0,0,0,.45-.65.85.85,0,0,0-.61-.4c-.75-.05-1.51,0-2.27,0-.34,0-.64-.06-.63-.51s.25-.54.61-.54c.64,0,1.28,0,1.92,0,.2,0,.39-.27.58-.42-.21-.13-.42-.35-.64-.37-.59,0-1.19,0-1.79,0-.32,0-.67,0-.67-.46s.37-.45.68-.45c.79,0,1.59,0,2.39,0,.15,0,.29-.21.43-.32-.13-.12-.26-.35-.39-.35-1.24,0-2.47,0-3.71,0-.16,0-.41.35-.43.56a11.62,11.62,0,0,0,0,1.67c0,.71,0,1.43.09,2.14Zm38.73,55.4c.75-.75,1.38-.81,2.07-.32a2.27,2.27,0,0,0,.58.37c.16,0,.36-.08.55-.13-.06-.21-.05-.48-.18-.61a2.93,2.93,0,0,0-3.66-.28c-.39.26-.66.52-.58,1.05a1,1,0,0,0,.84.88c.76.22,1.53.38,2.29.59a3,3,0,0,1,.56.37c-1.66.85-1.65.84-3-.27-.15-.13-.48,0-.73-.07,0,.26-.13.62,0,.76a2.44,2.44,0,0,0,1,.68,3.16,3.16,0,0,0,3-.1,1.28,1.28,0,0,0,.71-1.4,1.16,1.16,0,0,0-1.13-.91,3.35,3.35,0,0,1-.71-.07C178.65,65.93,178.15,65.74,177.58,65.54ZM57.74,7.77h0c0,.52,0,1,0,1.56s.18.73.69.72c1.08,0,2.16,0,3.23,0,.35,0,.65-.07.67-.5S62.05,9,61.67,9H59.39c-.3,0-.55-.09-.55-.47s.18-.58.57-.57c.64,0,1.28,0,1.91,0,.19,0,.37-.23.55-.36-.2-.14-.39-.39-.6-.41-.67-.05-1.36,0-2-.05-.14,0-.32-.29-.37-.48s.2-.3.35-.36a1.63,1.63,0,0,1,.59,0c.52,0,1,0,1.55,0s1,.2,1-.39-.56-.3-.88-.32a11.63,11.63,0,0,0-1.32,0c-.74,0-1.47.13-2.21.19Zm102.64-.28c.24-.23.62-.55.33-1.11a1.41,1.41,0,0,0-1.28-.92c-.92,0-1.83,0-2.75,0-.59,0-.75.28-.74.82,0,1,0,2,0,3a.86.86,0,0,0,.06.46.69.69,0,0,0,.45.28.56.56,0,0,0,.44-.29,3.33,3.33,0,0,0,.06-1c0-.45.2-.65.65-.62h.6c1.06,0,1.21.13,1.48,1.15s.28.9,1.41.51Zm-107-.4c0-.44-.07-.72-.06-1,0-.46-.21-.65-.66-.64s-.63.24-.63.67c0,1.08,0,2.16,0,3.23,0,.57.53.91,1,.62a1,1,0,0,0,.3-.8c-.06-1.55.27-1.25,1.35-1.27h.24c.94,0,.94,0,1,.92,0,.23,0,.47,0,.71,0,.43.33.5.68.51s.61-.14.61-.55c0-1.16,0-2.32,0-3.47,0-.41-.2-.56-.59-.57s-.72.2-.71.71.14.88-.47.92S54.09,7.09,53.4,7.09Zm62,58.56c.8-.82,1.27-.91,1.91-.52.17.1.3.32.47.35a2.8,2.8,0,0,0,.76-.07c-.09-.2-.13-.48-.28-.59-.34-.27-.77-.42-1.12-.67a1.19,1.19,0,0,0-1.45,0,11.43,11.43,0,0,0-1.12.67.77.77,0,0,0,.18,1.43c.88.33,1.8.55,2.7.83a2.37,2.37,0,0,1,.46.3c-1.56.85-2,.87-2.77,0-.32-.34-.64-.57-1-.25-.11.12.11.62.22.93a.87.87,0,0,0,.33.33,4.08,4.08,0,0,0,3.68,0,1.08,1.08,0,0,0,.15-1.74,2.89,2.89,0,0,0-1-.51C116.86,66,116.21,65.84,115.39,65.65Zm23.89-1.45a2.54,2.54,0,0,0-2.81,1.36,2,2,0,0,0,.16,2.1,3.47,3.47,0,0,0,5.27-.15,1.27,1.27,0,0,0,.21-1.63C141.48,64.76,140.7,63.93,139.28,64.2ZM146.73,67l-.24,0c-.63-.75-1.24-1.52-1.91-2.24a2.67,2.67,0,0,0-1-.63.45.45,0,0,0-.64.47c0,1.2,0,2.4,0,3.6,0,.17.23.33.36.5.16-.14.42-.26.47-.43a4.36,4.36,0,0,0,0-1c0-.48,0-1,0-1.6a4.23,4.23,0,0,1,.46.35c.6.74,1.19,1.49,1.81,2.22.3.34.73.62,1.16.36a1.25,1.25,0,0,0,.33-.9c0-1,0-1.92,0-2.88,0-.31,0-.69-.42-.71s-.49.32-.49.66C146.73,65.62,146.73,66.33,146.73,67ZM77,8.57A2.48,2.48,0,0,0,79,10a2.87,2.87,0,0,0,2.81-.93.81.81,0,0,0-.38-1.35c-.71-.31-1.48-.5-2.23-.76a7.6,7.6,0,0,1-.75-.31,1.66,1.66,0,0,1,2.05-.26c.36.21.69.56,1.18.14-.38-1.08-1.22-1.09-2.13-1.13-1.13,0-2.08.12-2.4,1.41a2.39,2.39,0,0,0,2.1,1.09,11.37,11.37,0,0,1,1.62.33c-.77,1.16-1.33,1.29-2.4.53C78.06,8.48,77.68,8.18,77,8.57Zm83.8,57c.52-.78.67-.83,1.41-.36.17.11.33.3.5.31a4.44,4.44,0,0,0,.86-.15,2.82,2.82,0,0,0-.31-.73,1.4,1.4,0,0,0-.6-.36c-.88-.35-1.62.18-2.4.41-.59.17-.51.74-.63,1.19a2.2,2.2,0,0,0,2.76,2.9,1.43,1.43,0,0,0,1.27-1.36,1.36,1.36,0,0,0-1-1.55A13.6,13.6,0,0,0,160.83,65.58Zm-59.45.47h0c0-.36,0-.71,0-1.07s-.09-.78-.64-.79-.7.25-.68.74,0,1,0,1.55a2.24,2.24,0,0,0,1.4,2.25,3.13,3.13,0,0,0,3.19-.73,2.29,2.29,0,0,0,.5-1,19.26,19.26,0,0,0,0-2.15c0-.46-.26-.62-.68-.61s-.57.21-.57.6c0,.71,0,1.43,0,2.15s-.53,1.16-1.47,1.14-1-.27-1.08-1.08C101.36,66.69,101.38,66.37,101.38,66.05Zm72.91-.1h0c0,.4,0,.8,0,1.2a1,1,0,0,1-.21.52,1.85,1.85,0,0,1-1.79.34,1.34,1.34,0,0,1-.83-1.33,11.6,11.6,0,0,0,0-1.56c0-.37.14-.87-.49-.9s-.54.44-.54.84a15.69,15.69,0,0,0,0,1.68,1.82,1.82,0,0,0,.28.87,2.66,2.66,0,0,0,3.52,1,2,2,0,0,0,1.41-1.72,19.81,19.81,0,0,0,0-2c0-.45-.2-.65-.64-.66s-.77.15-.74.69C174.31,65.23,174.29,65.59,174.29,66Zm-7-56.07c-.28-.6-.51-1.1-.76-1.59-.39-.78-.8-1.55-1.2-2.32a1,1,0,0,0-1-.52c-.44,0-.6.27-.75.63s-.48.92-.7,1.38c-.38.8-.75,1.61-1.12,2.42a1,1,0,0,0,1.47-.54c.31-.65.77-.69,1.36-.69s1.14,0,1.36.79C166.09,10,166.6,10.22,167.29,9.88Zm-96.37,0c.82.41,1.2,0,1.55-.53.15-.24.39-.6.6-.61.77,0,1.71-.36,2.08.75a.48.48,0,0,0,.23.27c.24.1.55.29.72.21.38-.17.23-.52.08-.81-.47-.92-1-1.82-1.4-2.75-.23-.5-.44-.89-1.08-.94s-.82.45-1,.83C72.07,7.42,71.53,8.6,70.92,9.85Zm59.16.07c-.68-1.34-1.29-2.63-2-3.87-.49-.89-1.17-.83-1.67.08-.24.45-.49.9-.72,1.37-.37.79-.73,1.58-1.11,2.4.92.34,1.26-.17,1.6-.68a1.35,1.35,0,0,1,2.32.1C128.81,10,129.26,10.19,130.08,9.92Zm57.7-4.46c-.43,0-.71,0-1,0a2.16,2.16,0,0,0-1.67,3.19A3.29,3.29,0,0,0,187.66,10a2.76,2.76,0,0,0,2.39-1.1c.14-.14,0-.5.07-.77a2.33,2.33,0,0,0-.76.1c-.35.17-.64.46-1,.66a1.46,1.46,0,0,1-1.92-.22A1.49,1.49,0,0,1,186.07,7a1.14,1.14,0,0,1,1.28-.84,5.8,5.8,0,0,1,1.46.42c.21.08.36.35.57.41a1.77,1.77,0,0,0,.68,0,2.21,2.21,0,0,0-.12-.65A2,2,0,0,0,187.78,5.46ZM96.72,9.87c.85.39,1.24,0,1.58-.57a1.5,1.5,0,0,1,2.48-.05,2.33,2.33,0,0,0,.58.59.9.9,0,0,0,.65.07c.06,0,.09-.34.06-.52a1.5,1.5,0,0,0-.21-.42c-.45-.89-.93-1.76-1.32-2.68a1.12,1.12,0,0,0-1-.84c-.57,0-.77.36-1,.74C97.93,7.38,97.36,8.59,96.72,9.87ZM94.61,65.66l.1-.31c-.77-1.33-2.06-1.28-3.34-1.13a1.87,1.87,0,0,0-1.71,1.7,2.18,2.18,0,0,0,.72,2.25,3.4,3.4,0,0,0,3.4.27c.53-.23,1.07-.56,1.08-1.28-.57-.14-.55-.1-1,.17-.69.4-1.37.86-2.27.42-.73-.35-1-.73-.83-1.71A1.24,1.24,0,0,1,92,65a7.79,7.79,0,0,1,1.48.36ZM111.9,9.86c1,.21,1.1.16,1.56-.53.16-.24.38-.6.59-.62.8-.07,1.72-.32,2.12.77a.45.45,0,0,0,.23.26,6.29,6.29,0,0,0,.74.22c0-.26.14-.56,0-.76-.49-1-1-2.07-1.55-3.1-.47-.88-1.27-.9-1.83,0a3.42,3.42,0,0,0-.26.4ZM224,8.11c-.57-.09-1-.18-1.35.31a1.71,1.71,0,0,1-2.28.49,1.48,1.48,0,0,1-.78-1.49,1.23,1.23,0,0,1,1-1.18,2.19,2.19,0,0,1,2,.45c.11.1.2.3.33.32a1.1,1.1,0,0,0,.65-.06c.08,0,.09-.36,0-.52a1.26,1.26,0,0,0-1.23-1c-.63,0-1.27,0-1.91,0a2.63,2.63,0,0,0-2,2A2.26,2.26,0,0,0,220,9.52l.78.31C222.13,10.39,223.44,9.75,224,8.11ZM169.64,65.45a.88.88,0,0,0,0-.24,1.18,1.18,0,0,0-.22-.28,3.35,3.35,0,0,0-3.46-.59,2.16,2.16,0,0,0-1.07,3.27,3.13,3.13,0,0,0,4.33.56c.37-.23.8-.62.51-1s-.65,0-1,.23c-.66.34-1.29.87-2.16.39a1.47,1.47,0,0,1-.89-1.82,1.33,1.33,0,0,1,1.54-1,4.18,4.18,0,0,1,1.22.41C168.83,65.53,169.2,65.77,169.64,65.45ZM145.55,7h0c0,.36,0,.73,0,1.08a1.15,1.15,0,0,1-1.21,1.2,1.28,1.28,0,0,1-1.55-1.37c0-.59,0-1.19,0-1.79,0-.34,0-.65-.5-.66s-.56.22-.57.59a19.61,19.61,0,0,0,0,2,2.4,2.4,0,0,0,2.61,2,2.34,2.34,0,0,0,2.3-2c.06-.63,0-1.27,0-1.91,0-.35-.08-.64-.52-.65s-.57.32-.57.71Zm-16.4,61.63c-.67-1.4-1.31-2.8-2-4.18a.8.8,0,0,0-1.3.09c-.59,1.12-1.17,2.25-1.72,3.4-.12.25-.35.62.09.82a.56.56,0,0,0,.77-.37c0-.07.09-.13.12-.2.31-.66.87-.69,1.51-.71a1.2,1.2,0,0,1,1.3.8C128.14,68.8,128.53,69,129.15,68.64ZM200.51,7.31h0V6.12c0-.35-.06-.64-.51-.64s-.53.26-.53.62c0,.64,0,1.28,0,1.91a1.64,1.64,0,0,1-.32.85,1.38,1.38,0,0,1-1.63.37A1.23,1.23,0,0,1,196.66,8c0-.63,0-1.27,0-1.91,0-.34,0-.64-.49-.65s-.54.24-.54.6c0,.6,0,1.2,0,1.8a2.35,2.35,0,0,0,2.62,2.17,2.12,2.12,0,0,0,2.28-2.26ZM121,65v3.08c0,.38,0,.71.54.76s.82-.11.83-.7c0-1,0-2.05,0-3.15a14.21,14.21,0,0,0,1.42-.08c.16,0,.31-.18.47-.27-.16-.14-.3-.4-.46-.4-1.36,0-2.71,0-4.07,0a.67.67,0,0,0-.35,0c-.12.07-.27.21-.27.32a.41.41,0,0,0,.27.3C119.9,64.92,120.38,64.94,121,65ZM190.82,7.69h0c0,.52,0,1,0,1.55s.17.82.75.81c.95,0,1.9,0,2.86,0,.36,0,.62-.11.62-.53s-.25-.55-.62-.55h-1.67c-.44,0-.64-.2-.63-.65,0-.75,0-1.51,0-2.26,0-.39-.16-.59-.56-.59s-.72.08-.73.57ZM85.94,6.24a11.39,11.39,0,0,0,1.44-.09c.18,0,.31-.26.47-.4-.15-.1-.31-.27-.46-.28-1.43,0-2.87,0-4.3,0-.14,0-.28.2-.43.31.13.12.25.33.39.35.5.07,1,.08,1.56.12,0,1,0,2,0,2.94,0,.51.12.86.73.85s.62-.38.62-.81C85.94,8.29,85.94,7.34,85.94,6.24Zm17-.68a23.63,23.63,0,0,0,1.6,2,1.67,1.67,0,0,1,.53,1.38c0,.2,0,.4,0,.6,0,.4.26.55.63.55s.56-.24.56-.61a3.84,3.84,0,0,0,0-.48A1.87,1.87,0,0,1,107,7.27a19.72,19.72,0,0,0,1.45-1.71c-.89-.16-1.49-.18-1.9.6a6.54,6.54,0,0,1-.88,1,6,6,0,0,1-.91-1.09C104.37,5.35,103.8,5.39,103,5.56ZM131.81,65c.65,0,1.2,0,1.75-.11.14,0,.25-.24.37-.37-.11-.09-.21-.25-.34-.27a5.06,5.06,0,0,0-1-.06c-1.16,0-2.32,0-3.48,0-.16,0-.31.26-.46.4.15.09.3.25.47.27.49.06,1,.07,1.52.11,0,.4,0,.68,0,1,0,.8,0,1.61,0,2.4,0,.17.34.39.56.43s.4-.21.48-.39a1.85,1.85,0,0,0,0-.71C131.81,66.81,131.81,65.94,131.81,65ZM95.54,66.38c0,.59,0,1.19,0,1.79,0,.45.2.66.65.65h3c.35,0,.64-.09.64-.52s-.28-.54-.64-.54c-.6,0-1.2,0-1.79,0s-.85-.25-.81-.86,0-1.27,0-1.91c0-.36.05-.76-.49-.77s-.55.33-.54.72ZM133.48,5.46h0c-.56,0-1.12,0-1.68,0-.36,0-1-.22-1,.29,0,.67.64.39,1,.42.84.08.85.06.87.91s0,1.6,0,2.4c0,.4.2.56.59.57s.71-.11.71-.59,0-1,0-1.44a3.7,3.7,0,0,1,.17-1.62c.14-.25.86-.14,1.32-.25.16,0,.28-.21.43-.32-.17-.12-.34-.34-.51-.35C134.76,5.43,134.12,5.46,133.48,5.46Zm-84,.78c.64,0,1.08,0,1.51-.1.14,0,.25-.24.38-.36-.11-.1-.21-.28-.32-.28-1.4,0-2.79,0-4.19,0a.54.54,0,0,0-.32.26.93.93,0,0,0,.33.4c.12.07.31,0,.47,0,1.09.06,1.09.06,1.1,1.15v2c0,.34,0,.65.49.67s.55-.24.55-.61,0-.48,0-.72ZM174.71,7.79c0-.59,0-1.19,0-1.78a.47.47,0,0,0-.49-.54c-.41,0-.58.19-.58.57,0,1.15,0,2.3,0,3.45a.77.77,0,0,0,.48.52c.38.1.57-.17.57-.55Zm-39.24,58.7h0a17.62,17.62,0,0,0,0-1.78c0-.18-.35-.33-.53-.49-.13.17-.37.33-.38.51q0,1.78,0,3.57c0,.16.26.32.4.48.18-.16.49-.32.51-.5A15.25,15.25,0,0,0,135.47,66.49ZM212.16,7.73a15.32,15.32,0,0,0,0-1.66c0-.2-.26-.39-.41-.58-.16.18-.45.36-.46.55,0,1.1,0,2.21,0,3.32,0,.34.09.7.5.62.17,0,.37-.37.39-.59A15.29,15.29,0,0,0,212.16,7.73Zm48.22,59.12,0-.27c-3.12-.65-3.83-.68-4.73-.14.41,0,.71.09,1,.1a5.51,5.51,0,0,1,2.66.32C259.57,67,260,66.86,260.38,66.85ZM225.93,9.57c-.36-.28-.52-.5-.73-.55a.39.39,0,0,0-.52.45.76.76,0,0,0,.45.53C225.3,10,225.53,9.8,225.93,9.57Z" transform="translate(-1 -1.93)" fill="#fff"/><path d="M229.77,2.59h37.28c.28,0,.56,0,.84,0,.49,0,.68.18.75.69a4.18,4.18,0,0,1-1.3,3.63c-1.85,2-3.6,4-5.4,6-1,1.08-2,2.12-3,3.22-1.45,1.63-2.86,3.3-4.3,4.93-.9,1-1.83,2-2.75,3l9.3,22.7c-.5,0-.91.07-1.32.07h-17c-1.43,0-1.44.07-1.63,1.54-.24,1.84-.6,3.66-.89,5.49a14,14,0,0,0-.12,1.44.54.54,0,0,1-.61.57H33.31c-1.35,0-1.44-.06-1.64-1.43q-.5-3.4-1-6.82c-.1-.76-.13-.8-1.13-.8H10.08a5.58,5.58,0,0,1,.2-.81c.67-1.44,1.36-2.88,2-4.32.25-.53.44-1.09.69-1.63q1.71-3.8,3.45-7.58c.61-1.33,1.27-2.63,1.89-4S19.44,26.19,20,25a.87.87,0,0,0-.12-.73c-.59-.79-1.22-1.56-1.86-2.32-1.32-1.58-2.65-3.14-4-4.72q-1.61-1.91-3.2-3.83l-5-6L3.12,4.14c-.35-.42-.69-.86-1.05-1.31,1-.32,34.89-.46,39-.19.59,2.56,1.19,5.12,1.77,7.69A9.5,9.5,0,0,1,43,11.75a.54.54,0,0,0,.61.57H225.76c1,0,1,0,1.32-1,.22-.68.46-1.36.68-2q.94-2.88,1.86-5.77A7.21,7.21,0,0,0,229.77,2.59Zm15,11.38H28.05c-.79,0-1,.2-.82.9a37.64,37.64,0,0,1,.73,4.2c.39,2.94,1,5.86,1.44,8.79.26,1.67.66,3.32.81,5,.11,1.32.55,2.61.61,4a15.31,15.31,0,0,0,.3,1.88c.3,1.67.61,3.33.89,5,.18,1.09.28,2.2.47,3.3.37,2.14.79,4.27,1.16,6.41.16,1,.21,1,1.21,1.06H237a5.45,5.45,0,0,0,1.07,0,.79.79,0,0,0,.48-.4,4,4,0,0,0,.26-1c.21-1.33.39-2.66.6-4,.33-2.1.7-4.19,1-6.29.24-1.48.45-3,.66-4.44.12-.86.22-1.71.33-2.57s.2-2,.36-3,.39-1.92.56-2.89c.09-.55.06-1.11.15-1.66.37-2.3.78-4.6,1.14-6.9.19-1.18.31-2.36.48-3.54S244.53,15.39,244.75,14Zm2.09-.32a5,5,0,0,0-.69,1.09,18.29,18.29,0,0,0-.41,2.21c-.24,1.69-.45,3.38-.69,5.07-.32,2.27-.66,4.55-1,6.82-.11.74-.2,1.49-.31,2.24l-.93,5.72c-.2,1.25-.41,2.5-.6,3.76-.22,1.5-.43,3-.64,4.51h17.54c-3-7.1-5.93-14.1-8.91-21.2.77-.85,1.59-1.76,2.42-2.66.3-.33.62-.63.91-1,1-1.14,1.95-2.3,2.95-3.43,1.28-1.46,2.59-2.89,3.9-4.32,1.9-2.05,3.82-4.07,5.71-6.12.57-.63,1.09-1.31,1.76-2.11H235.05c-.23,0-.47,0-.71.05a.11.11,0,0,0-.09.06s0,.08,0,.21l1.28.92c2.52,1.81,5,3.65,7.56,5.42a5.77,5.77,0,0,0,2.2,1.29c.62.11,1.2.17,1.16,1C246.44,13.4,246.75,13.56,246.84,13.65ZM5.16,4.33a7.56,7.56,0,0,0,.5.81c.88,1.07,1.75,2.15,2.66,3.19,1.53,1.78,3.08,3.53,4.62,5.29.58.65,1.19,1.28,1.75,1.94q2.46,2.89,4.9,5.81c.69.82,1.31,1.7,2,2.48A.91.91,0,0,1,21.74,25c-.51,1-1,2-1.5,3-.91,1.94-1.75,3.9-2.67,5.83-1.37,2.9-2.8,5.77-4.18,8.67-.4.82-.72,1.67-1.1,2.56H30.62c-.11-.63-.22-1.16-.3-1.7-.2-1.21-.41-2.41-.59-3.62s-.33-2.5-.5-3.74c-.07-.52-.14-1-.22-1.54-.44-2.66-.87-5.31-1.3-8-.13-.78-.2-1.57-.33-2.35-.3-1.75-.59-3.5-.93-5.24s-.2-3.48-.95-5.11c-.16-.35.07-.56.39-.75a15.61,15.61,0,0,0,1.67-1.11q2.79-2.14,5.55-4.31c1.37-1.07,2.72-2.15,4.17-3.3Zm237.16,8,.07-.32L231.25,4c-.29.65-.56,1.17-.75,1.72-.67,1.91-1.3,3.83-2,5.74-.3.85-.31.87.54.87h13.24ZM29.54,12.1a96,96,0,0,0,12,.11c-.14-.89-.23-1.79-.42-2.68C40.81,8,40.4,6.38,40,4.8c-.17-.73-.3-.79-.9-.32L32.41,9.77C31.46,10.52,30.53,11.29,29.54,12.1Z" transform="translate(-1 -1.93)"/><path d="M266.62,71.68c0,.31.06.5.08.7,0,.54-.16.84-.75.79-.24,0-.48,0-.72,0H6.41c-.24,0-.49,0-.72,0-.76,0-.9-.22-.86-1a.54.54,0,0,1,.59-.59L7,71.6H265C265.5,71.61,266.05,71.65,266.62,71.68Z" transform="translate(-1 -1.93)"/><path d="M135.75,60.32H265.92c.54,0,.8.17.79.76s-.27.79-.81.76c-.27,0-.56,0-.84,0H5.68c-.75,0-1-.26-.83-1a.83.83,0,0,1,.49-.53,3.81,3.81,0,0,1,1.07,0Z" transform="translate(-1 -1.93)"/><path d="M11.9,67.09c.1-.15.13-.26.18-.27,1.13-.13,2.26-.23,3.4-.36,1.76-.21,3.53-.45,5.3-.64,2.29-.23,4.59-.41,6.88-.64.94-.09,1.87-.26,2.81-.37.71-.09,1.42-.13,2.13-.21l6.48-.75c.26,0,.54,0,1,0-1.3,1.23-2.84,1.72-4,2.72,2-.16,4-.3,6-.49,1.38-.13,2.75-.34,4.13-.49.87-.09,1.74-.17,2.61-.23,1.11-.07,2.22-.08,3.33-.18s2.43-.31,3.64-.43a21.93,21.93,0,0,1,3.26-.11C58.27,65.7,56.89,66,55.85,67a12.13,12.13,0,0,0,2.4.43c3.06.06,6.13.19,9.2.3,1.62.68,3.36.26,5,.58a31.06,31.06,0,0,0,5.38.13c.36,0,.72,0,1.08.05a9.87,9.87,0,0,1,2.33.48,4.37,4.37,0,0,1-.7.15l-11.38.15a77.38,77.38,0,0,0-8.49.22c-2.91.38-5.81,0-8.69.33-1.47.14-2.93.22-4.41.22a6.59,6.59,0,0,1-.77-.07c.67-1.12,2.06-1.14,2.86-2.25H48.37c-1.52,0-3,0-4.54.17-2.23.27-4.48,0-6.67.32-1.84.25-3.65.14-5.47.24-.92,0-1.83.11-2.75.14a1.53,1.53,0,0,1-.81-.22A28.52,28.52,0,0,1,31.84,66c-.19-.08-.31-.17-.39-.14-2,.58-4.12.25-6.18.38a42,42,0,0,0-4.63.31c-2.68.47-5.39.36-8.07.61A2.86,2.86,0,0,1,11.9,67.09Z" transform="translate(-1 -1.93)"/><path d="M255.32,66.14a2.82,2.82,0,0,1-.61.14c-1.52,0-3.05,0-4.56-.09s-2.81-.41-4.22-.55c-1.07-.11-2.15-.1-3.23-.14l-3.11-.1L243.27,68a4,4,0,0,1-2.32.09,5.8,5.8,0,0,0-.81-.16c-2.24-.06-4.47-.09-6.71-.16a35.92,35.92,0,0,1-5.6-.29c-2-.37-3.9,0-5.82-.38-.1,0-.22.06-.48.13l2.74,2,0,.21c-1.18,0-2.36,0-3.54,0-1.44,0-2.87-.11-4.31-.14-4.15-.07-8.32.08-12.46-.24-2.91-.23-5.81-.1-8.71-.24-1,0-2-.19-3.31-.32.34-.22.47-.38.61-.39,1.94-.13,3.88-.26,5.81-.35,2.67-.13,5.36-.09,8-.37,2.42-.27,4.83-.34,7.25-.44.7,0,1.39-.18,2.27-.3L212,64a4.13,4.13,0,0,1,.87-.17,29.77,29.77,0,0,1,4.14.38c2.16.47,4.37.26,6.51.65,1.61.3,3.22.4,4.84.54,1.26.12,2.52.25,3.78.4a15.56,15.56,0,0,0,3,.19l-4-2.72a4.2,4.2,0,0,1,1-.16,61.93,61.93,0,0,0,7.2.8,19.4,19.4,0,0,1,2.55.49c.78.12,1.58.16,2.37.21a30.11,30.11,0,0,1,4,.51,40.08,40.08,0,0,0,4.27.4c.91.1,1.83.25,2.74.37Z" transform="translate(-1 -1.93)"/><path d="M121,8.49c.47-.91.88-1.61,1.22-2.35a1,1,0,0,1,1.12-.69c.45,0,.67.2.67.65V9.45c0,.38-.2.66-.59.56a.76.76,0,0,1-.45-.55,11,11,0,0,0-.22-2.08c-.28.54-.57,1.07-.84,1.61-.09.18-.12.39-.22.55-.46.69-1.11.67-1.49-.06-.29-.56-.52-1.15-.79-1.72a4.13,4.13,0,0,0-.53-.62c0,.84,0,1.42,0,2,0,.37.13.89-.5.86s-.48-.45-.48-.81c0-1,0-1.92,0-2.88,0-.36,0-.78.46-.82s1-.19,1.26.39C120,6.66,120.46,7.42,121,8.49Z" transform="translate(-1 -1.93)"/><path d="M157,66.91c.17-.55.3-1.12.52-1.66a3.53,3.53,0,0,1,.69-1c.08-.08.62.11.62.14a5.77,5.77,0,0,1-.23,1.24c-.29.85-.65,1.69-.93,2.55a.8.8,0,0,1-.86.66.86.86,0,0,1-.92-.76A3.8,3.8,0,0,0,155,66a8.06,8.06,0,0,0-.48.84,16,16,0,0,1-.6,1.55.84.84,0,0,1-.66.38.88.88,0,0,1-.56-.5c-.43-1-.83-2-1.18-3-.12-.33-.42-.77.1-1s.84.05,1.06.68.25,1,.4,1.5a8.13,8.13,0,0,0,.4.85c.37-.92.71-1.79,1.09-2.65.08-.18.34-.4.5-.38a.89.89,0,0,1,.63.38c.37.73.67,1.49,1,2.24Z" transform="translate(-1 -1.93)"/><path d="M67.94,10c-2.74,0-2.31.37-2.35-2.32,0-.52,0-1,0-1.56s.14-.7.6-.7c1.2,0,2.39,0,3.59,0,.15,0,.31.18.46.27-.15.14-.31.38-.47.39-.76.05-1.52,0-2.27.06-.21,0-.55.23-.58.4-.09.42.25.51.61.5H69.2c.33,0,.84-.17.86.35s-.55.43-.91.45c-.51,0-1,0-1.55,0-.35,0-.64.06-.66.5s.26.53.61.54c.68,0,1.36,0,2,0,.38,0,.76,0,.72.57S70,10,69.61,10C69.05,10.05,68.49,10,67.94,10Z" transform="translate(-1 -1.93)"/><path d="M105.81,66.54c.07-2.66-.54-2.32,2.43-2.36.62,0,1.21,0,1.6.57.11.16.33.4.29.49-.45.85.61,1.47.36,2.2a2.18,2.18,0,0,1-1,1.07,6,6,0,0,1-3.18.26c-.16,0-.41-.35-.43-.56A15.48,15.48,0,0,1,105.81,66.54Zm2-.46c.24-.09.69-.23,1.11-.43.12-.06.12-.33.18-.51a16.4,16.4,0,0,0-1.7-.2c-.22,0-.44.22-.66.34a.47.47,0,0,0,0,.12C106.64,65.91,106.87,66.1,107.76,66.08Zm1.67,1.64c-.07-.29-.05-.46-.12-.51a3.15,3.15,0,0,0-2.39-.24.4.4,0,0,0-.2.36c0,.15.22.37.35.38C107.84,67.74,108.6,67.72,109.43,67.72Z" transform="translate(-1 -1.93)"/><path d="M95.37,7.41c1.07,1,.9,1.75-.4,2.31a7.71,7.71,0,0,1-3,.32c-.37,0-.61-.16-.61-.56,0-1.15,0-2.31,0-3.46,0-.4.23-.56.61-.56.88,0,1.75,0,2.63,0,.61,0,.76.47,1.08.8C96.12,6.77,95.67,7.09,95.37,7.41Zm-2,1.89h.35c.53-.05,1-.15,1.25-.71.11-.32-.45-.63-1.21-.67a2,2,0,0,0-.82,0,.86.86,0,0,0-.52.48C92.28,9.11,92.51,9.3,93.4,9.3ZM94.62,7a1.41,1.41,0,0,0-1.73-.75c-.17,0-.42.27-.42.41s.23.45.37.45C93.4,7.07,94,7,94.62,7Z" transform="translate(-1 -1.93)"/><path d="M151.8,7.44c.21.78.39,1.34.51,1.91a2,2,0,0,1-.09.63,2.53,2.53,0,0,1-.85-.22c-.17-.11-.22-.41-.31-.63a1.76,1.76,0,0,0-2.32-.93.69.69,0,0,0-.28.46,4.88,4.88,0,0,1-.07.95.8.8,0,0,1-.6.4c-.2,0-.57-.26-.57-.42-.05-1.23,0-2.47,0-3.71,0-.14.3-.39.47-.39a25,25,0,0,1,3.35,0A1.15,1.15,0,0,1,151.8,7.44Zm-2-1.41-.07.15H149a.52.52,0,0,0-.6.57c0,.46.2.65.65.63h.59c.76,0,1.49-.48,1.29-.71A4.06,4.06,0,0,0,149.83,6Z" transform="translate(-1 -1.93)"/><path d="M214.09,6.82c0,1,0,1.76,0,2.55,0,.42-.13.69-.61.68s-.63-.26-.63-.69c0-1,0-2,0-3,0-.28.11-.7.3-.8a1,1,0,0,1,1.2.2c.64.71,1.28,1.42,1.91,2.15.12.14.2.34.42.45a6,6,0,0,0,.22-2.15c0-.36,0-.75.54-.73s.5.41.5.77c0,1,0,2,0,3,0,.77-.51,1-1.17.65a2.07,2.07,0,0,1-.54-.48C215.56,8.61,214.89,7.79,214.09,6.82Z" transform="translate(-1 -1.93)"/><path d="M167.82,7.73c0-.51,0-1,0-1.55s.18-.74.69-.73c.8,0,1.59,0,2.39,0a2.22,2.22,0,0,1,1.76,3.38,1.18,1.18,0,0,1-.49.5,7.39,7.39,0,0,1-3.68.7c-.43-.06-.67-.2-.66-.65V7.73ZM169,7.5V8c0,1,0,1,1,1a3.85,3.85,0,0,0,.48,0c1.13-.09,1.56-.77,1.31-1.88-.16-.68-.72-.7-1.17-.83C169.32,5.9,169,6.18,169,7.5Z" transform="translate(-1 -1.93)"/><path d="M205.28,7.45a3.91,3.91,0,0,1,.36.4c.54.73.47,1.07-.25,1.56a5.26,5.26,0,0,1-3.58.59c-.17,0-.43-.36-.44-.56,0-1.12,0-2.24,0-3.36,0-.47.26-.63.68-.62.76,0,1.52,0,2.28,0C205.55,5.5,205.94,6.24,205.28,7.45Zm-1.95,1.94a10.39,10.39,0,0,0,1.23-.4c.17-.08.39-.34.37-.49a.68.68,0,0,0-.45-.45,10,10,0,0,0-1.54-.13c-.48,0-.62.28-.61.7C202.33,9.19,202.47,9.29,203.33,9.39Zm1.31-2.49a1.7,1.7,0,0,0-1.87-.68c-.16,0-.29.29-.43.44.16.14.32.39.48.39A17.45,17.45,0,0,0,204.64,6.9Z" transform="translate(-1 -1.93)"/><path d="M178.32,10.2a16.26,16.26,0,0,1-1.95-.73,2,2,0,0,1-.17-3.35,4,4,0,0,1,4.32,0A2,2,0,0,1,180,9.68Zm1.89-2.49c0-.78-.44-1.23-1.43-1.46a1.78,1.78,0,0,0-2.18,1.11c-.24.84.12,1.31,1.31,1.71.08,0,.14.08.22.1A1.9,1.9,0,0,0,180.21,7.71Z" transform="translate(-1 -1.93)"/><path d="M138.85,10.14l-2.21-.28c0-.71-.08-1.43-.09-2.14a11.62,11.62,0,0,1,0-1.67c0-.21.27-.55.43-.56,1.24,0,2.47,0,3.71,0,.13,0,.26.23.39.35-.14.11-.28.31-.43.32-.8,0-1.6,0-2.39,0-.31,0-.68,0-.68.45s.35.46.67.46c.6,0,1.2,0,1.79,0,.22,0,.43.24.64.37-.19.15-.38.41-.58.42-.64.06-1.28,0-1.92,0-.36,0-.61.11-.61.54s.29.51.63.51c.76,0,1.52,0,2.27,0a.85.85,0,0,1,.61.4.44.44,0,0,1-.45.65c-.6,0-1.2,0-1.79,0Z" transform="translate(-1 -1.93)"/><path d="M177.58,65.54c.57.2,1.07.39,1.58.54a3.35,3.35,0,0,0,.71.07,1.16,1.16,0,0,1,1.13.91,1.28,1.28,0,0,1-.71,1.4,3.16,3.16,0,0,1-3,.1,2.44,2.44,0,0,1-1-.68c-.13-.14,0-.5,0-.76.25,0,.58-.06.73.07,1.31,1.11,1.3,1.12,3,.27a3,3,0,0,0-.56-.37c-.76-.21-1.53-.37-2.29-.59a1,1,0,0,1-.84-.88c-.08-.53.19-.79.58-1.05a2.93,2.93,0,0,1,3.66.28c.13.13.12.4.18.61-.19.05-.39.17-.55.13a2.27,2.27,0,0,1-.58-.37C179,64.73,178.33,64.79,177.58,65.54Z" transform="translate(-1 -1.93)"/><path d="M57.74,7.77l.16-2.13c.74-.06,1.47-.14,2.21-.19a11.63,11.63,0,0,1,1.32,0c.32,0,.88-.17.88.32s-.59.37-1,.39-1,0-1.55,0a1.63,1.63,0,0,0-.59,0c-.15.06-.37.27-.35.36s.23.47.37.48c.67.05,1.36,0,2,.05.21,0,.4.27.6.41-.18.13-.36.35-.55.36-.63,0-1.27,0-1.91,0-.39,0-.58.17-.57.57s.25.46.55.47h2.28c.38,0,.73.06.71.58s-.32.5-.67.5c-1.07,0-2.15,0-3.23,0-.51,0-.71-.22-.69-.72s0-1,0-1.56Z" transform="translate(-1 -1.93)"/><path d="M160.38,7.49l.72,2.31c-1.13.39-1.17.37-1.41-.51s-.42-1.14-1.48-1.15h-.6c-.45,0-.65.17-.65.62a3.33,3.33,0,0,1-.06,1,.56.56,0,0,1-.44.29.69.69,0,0,1-.45-.28.86.86,0,0,1-.06-.46c0-1,0-2,0-3,0-.54.15-.83.74-.82.92,0,1.83,0,2.75,0a1.41,1.41,0,0,1,1.28.92C161,6.94,160.62,7.26,160.38,7.49Zm-.68-.73c-.64-.82-1.45-.52-2.17-.57-.4,0-.56.2-.56.59s.13.6.55.6A2.56,2.56,0,0,0,159.7,6.76Z" transform="translate(-1 -1.93)"/><path d="M53.4,7.09c.69,0,1.35,0,2,0s.47-.55.47-.92.2-.73.71-.71.6.16.59.57c0,1.15,0,2.31,0,3.47,0,.41-.24.56-.61.55s-.65-.08-.68-.51c0-.24,0-.48,0-.71,0-.89,0-.9-1-.92h-.24c-1.08,0-1.41-.28-1.35,1.27a1,1,0,0,1-.3.8c-.43.29-1-.05-1-.62,0-1.07,0-2.15,0-3.23,0-.43.18-.66.63-.67s.67.18.66.64C53.33,6.37,53.37,6.65,53.4,7.09Z" transform="translate(-1 -1.93)"/><path d="M115.39,65.65c.82.19,1.47.31,2.1.5a2.89,2.89,0,0,1,1,.51,1.08,1.08,0,0,1-.15,1.74,4.08,4.08,0,0,1-3.68,0,.87.87,0,0,1-.33-.33c-.11-.31-.33-.81-.22-.93.34-.32.66-.09,1,.25.82.89,1.21.87,2.77,0a2.37,2.37,0,0,0-.46-.3c-.9-.28-1.82-.5-2.7-.83a.77.77,0,0,1-.18-1.43,11.43,11.43,0,0,1,1.12-.67,1.19,1.19,0,0,1,1.45,0c.35.25.78.4,1.12.67.15.11.19.39.28.59a2.8,2.8,0,0,1-.76.07c-.17,0-.3-.25-.47-.35C116.66,64.74,116.19,64.83,115.39,65.65Z" transform="translate(-1 -1.93)"/><path d="M139.28,64.2c1.42-.27,2.2.56,2.83,1.68a1.27,1.27,0,0,1-.21,1.63,3.47,3.47,0,0,1-5.27.15,2,2,0,0,1-.16-2.1A2.54,2.54,0,0,1,139.28,64.2Zm-.16.72c-.12,0-.24,0-.36,0a1.72,1.72,0,0,0-1.42,1.55c0,.47.57,1,1.12,1.32a2,2,0,0,0,1.56,0,1.25,1.25,0,0,0,.87-1.91A1.62,1.62,0,0,0,139.12,64.92Z" transform="translate(-1 -1.93)"/><path d="M146.73,67c0-.71,0-1.42,0-2.14,0-.34,0-.68.49-.66s.42.4.42.71c0,1,0,1.92,0,2.88a1.25,1.25,0,0,1-.33.9c-.43.26-.86,0-1.16-.36-.62-.73-1.21-1.48-1.81-2.22a4.23,4.23,0,0,0-.46-.35c0,.63,0,1.12,0,1.6a4.36,4.36,0,0,1,0,1c0,.17-.31.29-.47.43-.13-.17-.36-.33-.36-.5,0-1.2,0-2.4,0-3.6a.45.45,0,0,1,.64-.47,2.67,2.67,0,0,1,1,.63c.67.72,1.28,1.49,1.91,2.24Z" transform="translate(-1 -1.93)"/><path d="M77,8.57c.65-.39,1-.09,1.48.22,1.07.76,1.63.63,2.4-.53a11.37,11.37,0,0,0-1.62-.33,2.39,2.39,0,0,1-2.1-1.09c.32-1.29,1.27-1.45,2.4-1.41.91,0,1.75.05,2.13,1.13-.49.42-.82.07-1.18-.14a1.66,1.66,0,0,0-2.05.26,7.6,7.6,0,0,0,.75.31c.75.26,1.52.45,2.23.76a.81.81,0,0,1,.38,1.35A2.87,2.87,0,0,1,79,10,2.48,2.48,0,0,1,77,8.57Z" transform="translate(-1 -1.93)"/><path d="M160.83,65.58a13.6,13.6,0,0,1,1.84.3,1.36,1.36,0,0,1,1,1.55,1.43,1.43,0,0,1-1.27,1.36,2.2,2.2,0,0,1-2.76-2.9c.12-.45,0-1,.63-1.19.78-.23,1.52-.76,2.4-.41a1.4,1.4,0,0,1,.6.36,2.82,2.82,0,0,1,.31.73,4.44,4.44,0,0,1-.86.15c-.17,0-.33-.2-.5-.31C161.5,64.75,161.35,64.8,160.83,65.58Zm.82,1c-.69,0-1,.19-1,.7,0,.29.74.82,1.14.8s.94-.53.92-.78S162.21,66.55,161.65,66.54Z" transform="translate(-1 -1.93)"/><path d="M101.38,66.05c0,.32,0,.64,0,1,0,.81.28,1.06,1.08,1.08s1.44-.35,1.47-1.14,0-1.44,0-2.15c0-.39.17-.59.57-.6s.68.15.68.61a19.26,19.26,0,0,1,0,2.15,2.29,2.29,0,0,1-.5,1,3.13,3.13,0,0,1-3.19.73,2.24,2.24,0,0,1-1.4-2.25c0-.52,0-1,0-1.55s.15-.75.68-.74.66.33.64.79,0,.71,0,1.07Z" transform="translate(-1 -1.93)"/><path d="M174.29,66c0-.36,0-.72,0-1.08,0-.54.26-.69.74-.69s.65.21.64.66a19.81,19.81,0,0,1,0,2,2,2,0,0,1-1.41,1.72,2.66,2.66,0,0,1-3.52-1,1.82,1.82,0,0,1-.28-.87,15.69,15.69,0,0,1,0-1.68c0-.4-.08-.87.54-.84s.47.53.49.9a11.6,11.6,0,0,1,0,1.56,1.34,1.34,0,0,0,.83,1.33,1.85,1.85,0,0,0,1.79-.34,1,1,0,0,0,.21-.52c0-.4,0-.8,0-1.2Z" transform="translate(-1 -1.93)"/><path d="M167.29,9.88c-.69.34-1.2.09-1.34-.44-.22-.81-.74-.78-1.36-.79s-1.05,0-1.36.69a1,1,0,0,1-1.47.54c.37-.81.74-1.62,1.12-2.42.22-.46.49-.91.7-1.38s.31-.62.75-.63a1,1,0,0,1,1,.52c.4.77.81,1.54,1.2,2.32C166.78,8.78,167,9.28,167.29,9.88Zm-2.78-3.05-.39.85C165,7.63,165,7.63,164.51,6.83Z" transform="translate(-1 -1.93)"/><path d="M70.92,9.85c.61-1.25,1.15-2.43,1.75-3.58.21-.38.39-.87,1-.83s.85.44,1.08.94c.43.93.93,1.83,1.4,2.75.15.29.3.64-.08.81-.17.08-.48-.11-.72-.21a.48.48,0,0,1-.23-.27c-.37-1.11-1.31-.79-2.08-.75-.21,0-.45.37-.6.61C72.12,9.88,71.74,10.26,70.92,9.85Zm2.91-3.23-.55,1.06h.85Z" transform="translate(-1 -1.93)"/><path d="M130.08,9.92c-.82.27-1.27.09-1.57-.6a1.35,1.35,0,0,0-2.32-.1c-.34.51-.68,1-1.6.68.38-.82.74-1.61,1.11-2.4.23-.47.48-.92.72-1.37.5-.91,1.18-1,1.67-.08C128.79,7.29,129.4,8.58,130.08,9.92ZM127.31,7.8a2.73,2.73,0,0,0,.27-.25c-.09-.14-.22-.27-.33-.41-.08.11-.23.23-.23.34S127.19,7.68,127.31,7.8Z" transform="translate(-1 -1.93)"/><path d="M187.78,5.46a2,2,0,0,1,2.16.88,2.21,2.21,0,0,1,.12.65,1.77,1.77,0,0,1-.68,0c-.21-.06-.36-.33-.57-.41a5.8,5.8,0,0,0-1.46-.42,1.14,1.14,0,0,0-1.28.84,1.49,1.49,0,0,0,.39,1.64,1.46,1.46,0,0,0,1.92.22c.34-.2.63-.49,1-.66a2.33,2.33,0,0,1,.76-.1c0,.27.07.63-.07.77a2.76,2.76,0,0,1-2.39,1.1,3.29,3.29,0,0,1-2.54-1.36,2.16,2.16,0,0,1,1.67-3.19C187.07,5.44,187.35,5.46,187.78,5.46Z" transform="translate(-1 -1.93)"/><path d="M96.72,9.87c.64-1.28,1.21-2.49,1.83-3.68.2-.38.4-.79,1-.74a1.12,1.12,0,0,1,1,.84c.39.92.87,1.79,1.32,2.68a1.5,1.5,0,0,1,.21.42c0,.18,0,.51-.06.52a.9.9,0,0,1-.65-.07,2.33,2.33,0,0,1-.58-.59,1.5,1.5,0,0,0-2.48.05C98,9.86,97.57,10.26,96.72,9.87Zm3-3.17-.18,0-.24.92.77.16Z" transform="translate(-1 -1.93)"/><path d="M94.61,65.66l-1.17-.35A7.79,7.79,0,0,0,92,65,1.24,1.24,0,0,0,90.75,66c-.15,1,.1,1.36.83,1.71.9.44,1.58,0,2.27-.42.46-.27.44-.31,1-.17,0,.72-.55,1-1.08,1.28a3.4,3.4,0,0,1-3.4-.27,2.18,2.18,0,0,1-.72-2.25,1.87,1.87,0,0,1,1.71-1.7c1.28-.15,2.57-.2,3.34,1.13Z" transform="translate(-1 -1.93)"/><path d="M111.9,9.86l1.65-3.41a3.42,3.42,0,0,1,.26-.4c.56-.85,1.36-.83,1.83,0,.53,1,1.06,2.05,1.55,3.1.09.2,0,.5,0,.76a6.29,6.29,0,0,1-.74-.22.45.45,0,0,1-.23-.26c-.4-1.09-1.32-.84-2.12-.77-.21,0-.43.38-.59.62C113,10,112.91,10.07,111.9,9.86Zm3.25-2.17-.38-1.24-.49,1.24Z" transform="translate(-1 -1.93)"/><path d="M224,8.11c-.58,1.64-1.89,2.28-3.29,1.72L220,9.52a2.26,2.26,0,0,1-1.43-2.06,2.63,2.63,0,0,1,2-2c.64,0,1.28,0,1.91,0a1.26,1.26,0,0,1,1.23,1c.06.16.05.48,0,.52A1.1,1.1,0,0,1,223,7c-.13,0-.22-.22-.33-.32a2.19,2.19,0,0,0-2-.45,1.23,1.23,0,0,0-1,1.18,1.48,1.48,0,0,0,.78,1.49,1.71,1.71,0,0,0,2.28-.49C223.07,7.93,223.45,8,224,8.11Z" transform="translate(-1 -1.93)"/><path d="M169.64,65.45c-.44.32-.81.08-1.21-.11a4.18,4.18,0,0,0-1.22-.41,1.33,1.33,0,0,0-1.54,1,1.47,1.47,0,0,0,.89,1.82c.87.48,1.5-.05,2.16-.39.33-.18.67-.69,1-.23s-.14.8-.51,1a3.13,3.13,0,0,1-4.33-.56,2.16,2.16,0,0,1,1.07-3.27,3.35,3.35,0,0,1,3.46.59,1.18,1.18,0,0,1,.22.28A.88.88,0,0,1,169.64,65.45Z" transform="translate(-1 -1.93)"/><path d="M145.55,7V6.18c0-.39.06-.73.57-.71s.52.3.52.65c0,.64,0,1.28,0,1.91a2.34,2.34,0,0,1-2.3,2,2.4,2.4,0,0,1-2.61-2,19.61,19.61,0,0,1,0-2c0-.37.16-.61.57-.59s.5.32.5.66c0,.6,0,1.2,0,1.79a1.28,1.28,0,0,0,1.55,1.37,1.15,1.15,0,0,0,1.21-1.2c0-.35,0-.72,0-1.08Z" transform="translate(-1 -1.93)"/><path d="M129.15,68.64c-.62.35-1,.16-1.23-.35a1.2,1.2,0,0,0-1.3-.8c-.64,0-1.2.05-1.51.71,0,.07-.09.13-.12.2a.56.56,0,0,1-.77.37c-.44-.2-.21-.57-.09-.82.55-1.15,1.13-2.28,1.72-3.4a.8.8,0,0,1,1.3-.09C127.84,65.84,128.48,67.24,129.15,68.64ZM126,66.47l.16.3.86-.23-.37-.65Z" transform="translate(-1 -1.93)"/><path d="M200.51,7.31v.48a2.12,2.12,0,0,1-2.28,2.26,2.35,2.35,0,0,1-2.62-2.17c0-.6,0-1.2,0-1.8,0-.36.11-.62.54-.6s.49.31.49.65c0,.64,0,1.28,0,1.91a1.23,1.23,0,0,0,.85,1.19,1.38,1.38,0,0,0,1.63-.37,1.64,1.64,0,0,0,.32-.85c0-.63,0-1.27,0-1.91,0-.36.09-.63.53-.62s.51.29.51.64V7.31Z" transform="translate(-1 -1.93)"/><path d="M121,65c-.66,0-1.14-.06-1.61-.12a.41.41,0,0,1-.27-.3c0-.11.15-.25.27-.32a.67.67,0,0,1,.35,0c1.36,0,2.71,0,4.07,0,.16,0,.3.26.46.4-.16.09-.31.25-.47.27a14.21,14.21,0,0,1-1.42.08c0,1.1,0,2.12,0,3.15,0,.59-.26.75-.83.7s-.54-.38-.54-.76Z" transform="translate(-1 -1.93)"/><path d="M190.82,7.69V6c0-.49.33-.57.73-.57s.56.2.56.59c0,.75,0,1.51,0,2.26,0,.45.19.66.63.65h1.67c.37,0,.62.13.62.55s-.26.53-.62.53c-1,0-1.91,0-2.86,0-.58,0-.77-.27-.75-.81s0-1,0-1.55Z" transform="translate(-1 -1.93)"/><path d="M85.94,6.24c0,1.1,0,2,0,3,0,.43,0,.8-.62.81s-.73-.34-.73-.85c0-.95,0-1.89,0-2.94-.55,0-1.06,0-1.56-.12-.14,0-.26-.23-.39-.35.15-.11.29-.31.43-.31,1.43,0,2.87,0,4.3,0,.15,0,.31.18.46.28-.16.14-.29.37-.47.4A11.39,11.39,0,0,1,85.94,6.24Z" transform="translate(-1 -1.93)"/><path d="M103,5.56c.83-.17,1.4-.21,1.76.56a6,6,0,0,0,.91,1.09,6.54,6.54,0,0,0,.88-1c.41-.78,1-.76,1.9-.6A19.72,19.72,0,0,1,107,7.27,1.87,1.87,0,0,0,106.29,9a3.84,3.84,0,0,1,0,.48c0,.37-.15.61-.56.61s-.62-.15-.63-.55c0-.2,0-.4,0-.6a1.67,1.67,0,0,0-.53-1.38A23.63,23.63,0,0,1,103,5.56Z" transform="translate(-1 -1.93)"/><path d="M131.81,65c0,1,0,1.82,0,2.69a1.85,1.85,0,0,1,0,.71c-.08.18-.34.41-.48.39s-.55-.26-.56-.43c-.07-.79,0-1.6,0-2.4,0-.27,0-.55,0-1-.53,0-1,0-1.52-.11-.17,0-.32-.18-.47-.27.15-.14.3-.39.46-.4,1.16,0,2.32,0,3.48,0a5.06,5.06,0,0,1,1,.06c.13,0,.23.18.34.27-.12.13-.23.35-.37.37C133,65,132.46,65,131.81,65Z" transform="translate(-1 -1.93)"/><path d="M95.54,66.38V64.94c0-.39,0-.74.54-.72s.49.41.49.77c0,.64,0,1.28,0,1.91s.17.89.81.86,1.19,0,1.79,0c.36,0,.63.12.64.54s-.29.52-.64.52h-3c-.45,0-.66-.2-.65-.65C95.55,67.57,95.54,67,95.54,66.38Z" transform="translate(-1 -1.93)"/><path d="M133.48,5.46c.64,0,1.28,0,1.92,0,.17,0,.34.23.51.35-.15.11-.27.29-.43.32-.46.11-1.18,0-1.32.25A3.7,3.7,0,0,0,134,8c0,.48,0,1,0,1.44s-.29.59-.71.59-.59-.17-.59-.57c0-.8,0-1.6,0-2.4s0-.83-.87-.91c-.37,0-1.05.25-1-.42,0-.51.65-.27,1-.29.56,0,1.12,0,1.68,0Z" transform="translate(-1 -1.93)"/><path d="M49.47,6.24V8.71c0,.24,0,.48,0,.72s-.12.62-.55.61-.49-.33-.49-.67v-2c0-1.09,0-1.09-1.1-1.15-.16,0-.35,0-.47,0a.93.93,0,0,1-.33-.4.54.54,0,0,1,.32-.26c1.4,0,2.79,0,4.19,0,.11,0,.21.18.32.28-.13.12-.24.33-.38.36C50.55,6.21,50.11,6.2,49.47,6.24Z" transform="translate(-1 -1.93)"/><path d="M174.71,7.79V9.46c0,.38-.19.65-.57.55a.77.77,0,0,1-.48-.52c0-1.15,0-2.3,0-3.45,0-.38.17-.59.58-.57a.47.47,0,0,1,.49.54C174.72,6.6,174.71,7.2,174.71,7.79Z" transform="translate(-1 -1.93)"/><path d="M135.47,66.49a15.25,15.25,0,0,1,0,1.79c0,.18-.33.34-.51.5-.14-.16-.39-.32-.4-.48q0-1.78,0-3.57c0-.18.25-.34.38-.51.18.16.5.31.53.49a17.62,17.62,0,0,1,0,1.78Z" transform="translate(-1 -1.93)"/><path d="M212.16,7.73a15.29,15.29,0,0,1,0,1.66c0,.22-.22.56-.39.59-.41.08-.5-.28-.5-.62,0-1.11,0-2.22,0-3.32,0-.19.3-.37.46-.55.15.19.39.38.41.58A15.32,15.32,0,0,1,212.16,7.73Z" transform="translate(-1 -1.93)"/><path d="M260.38,66.85c-.37,0-.81.16-1.08,0a5.51,5.51,0,0,0-2.66-.32c-.3,0-.6-.06-1-.1.9-.54,1.61-.51,4.73.14Z" transform="translate(-1 -1.93)"/><path d="M206.94,10.34a3.26,3.26,0,0,1-.18-.91.61.61,0,0,1,.46-.39.62.62,0,0,1,.44.42c.09.53,0,1-.74.86Z" transform="translate(-1 -1.93)"/><path d="M225.93,9.57c-.4.23-.63.46-.8.43a.76.76,0,0,1-.45-.53A.39.39,0,0,1,225.2,9C225.41,9.07,225.57,9.29,225.93,9.57Z" transform="translate(-1 -1.93)"/><path d="M206.92,10.32l0,.07.06-.05Z" transform="translate(-1 -1.93)"/><path d="M244.75,14c-.22,1.42-.42,2.62-.6,3.83s-.29,2.36-.48,3.54c-.36,2.3-.77,4.6-1.14,6.9-.09.55-.06,1.11-.15,1.66-.17,1-.41,1.92-.56,2.89s-.24,2-.36,3-.21,1.71-.33,2.57c-.21,1.48-.42,3-.66,4.44-.33,2.1-.7,4.19-1,6.29-.21,1.33-.39,2.66-.6,4a4,4,0,0,1-.26,1,.79.79,0,0,1-.48.4,5.45,5.45,0,0,1-1.07,0H34.85c-1,0-1.05-.1-1.21-1.06-.37-2.14-.79-4.27-1.16-6.41-.19-1.1-.29-2.21-.47-3.3-.28-1.68-.59-3.34-.89-5a15.31,15.31,0,0,1-.3-1.88c-.06-1.35-.5-2.64-.61-4-.15-1.7-.55-3.35-.81-5-.47-2.93-1-5.85-1.44-8.79a37.64,37.64,0,0,0-.73-4.2c-.19-.7,0-.88.82-.9h216.7Zm-109.81,6.2c-1.09.16-2.19.33-3.29.46a13.79,13.79,0,0,0-8.12,4.14,13.6,13.6,0,0,0-3.94,6.63,18.4,18.4,0,0,0-.1,4.51,9.09,9.09,0,0,0,1.77,5,23.87,23.87,0,0,0,4,4,7.84,7.84,0,0,0,2.4,1.51,25,25,0,0,0,4,1.12,14.09,14.09,0,0,0,3.52.44,23.27,23.27,0,0,0,4.55-.69,15.88,15.88,0,0,0,4.62-2.13,14.49,14.49,0,0,0,6.15-9,5.67,5.67,0,0,0,.25-2c-.18-1.4-.5-2.78-.78-4.17a2.72,2.72,0,0,0-.31-1,24.4,24.4,0,0,0-3.84-4.86,10.79,10.79,0,0,0-2.33-1.83A21,21,0,0,0,134.94,20.17Zm16.17,6.71c.15.78.22,1.41.38,2,.92,3.39,1.87,6.78,2.78,10.17.12.47.34.7.8.72s.72,0,1.08,0c1,0,1.2-.16,1.35-1.1.28-1.76.51-3.53.84-5.28.09-.47,0-1.11.69-1.52.46,2.23.95,4.34,1.34,6.46.25,1.43.19,1.44,1.58,1.44h.72c.57,0,.83-.25,1-.82.6-2.46,1.25-4.91,1.89-7.36.35-1.3.72-2.6,1-3.91.16-.67,0-.81-.62-.85s-1,0-1.55,0-.72.21-.81.68c-.27,1.48-.55,3-.82,4.44a6.39,6.39,0,0,1-.8,2.76c-.19-.76-.36-1.31-.47-1.87-.32-1.75-.61-3.51-.94-5.27-.05-.24-.25-.64-.41-.65a15.88,15.88,0,0,0-2.39,0c-.15,0-.35.32-.42.52a19,19,0,0,0-.49,1.94c-.37,1.95-.71,3.9-1.1,6-.16-.62-.3-1-.38-1.46-.33-1.79-.65-3.58-1-5.37a8,8,0,0,0-.32-1.26c-.07-.18-.31-.43-.48-.44C152.77,26.84,152,26.87,151.11,26.88Zm-43.72,5.64c0-.06,0-.15.09-.2,1.15-1,1-2.33.66-3.55a2.65,2.65,0,0,0-2.69-1.94q-3-.09-6-.12c-1,0-1,0-1,1q0,5.34,0,10.68a1.92,1.92,0,0,1,0,.24c-.06.57.21.8.77.77a62.34,62.34,0,0,0,6.68-.25,3.61,3.61,0,0,0,2.44-5.43C108,33.33,107.71,32.93,107.39,32.52Zm63.11-.35.25-.05c1.14,2,2.31,4.05,3.42,6.1.86,1.59.83,1.6,2.63,1.57,1.1,0,1.1,0,1.11-1.15V28.08a2.79,2.79,0,0,0,0-.71c-.24-.89-1-.45-1.51-.51s-1-.22-1.11.53a7.85,7.85,0,0,0,0,.84v6.53c-.69-1.17-1.29-2.16-1.85-3.18-.79-1.41-1.51-2.86-2.31-4.26a1.13,1.13,0,0,0-.78-.45,17.39,17.39,0,0,0-1.91,0,.53.53,0,0,0-.58.61c0,.28,0,.56,0,.84V38c0,1.9,0,1.94,1.94,1.78.08,0,.19,0,.24,0a1.66,1.66,0,0,0,.47-.56,2.54,2.54,0,0,0,0-.83Zm57.13-2.81c0-.61,0-1.12,0-1.63,0-.83-.05-.88-.89-.88q-3.6,0-7.19,0c-1,0-1,0-1,1,0,3.68,0,7.35,0,11,0,.86.06.9,1,.91h7.79c.53,0,.83-.2.8-.78,0-.23,0-.48,0-.71,0-.84-.07-.89-.89-.91-1.28,0-2.56,0-3.84,0-2.33,0-2,.47-2-2.12,0-.78.09-.85.94-.86,1.16,0,2.32,0,3.47,0,1.6,0,1.6,0,1.54-1.6a.48.48,0,0,1,0-.12c.05-.56-.21-.78-.77-.77-1.2,0-2.4,0-3.59,0-1.7,0-1.58.26-1.61-1.62,0-.62.23-.86.84-.85,1.36,0,2.72,0,4.08,0C226.65,29.43,227.08,29.39,227.63,29.36ZM79.79,33.05V28.62c0-2.07-.07-2.12-2.15-1.93-.51,0-.68.26-.67.76,0,1,0,2.08,0,3.12,0,.49-.22.72-.73.71-1,0-2,0-3,0-.52,0-.71-.24-.7-.73,0-.64,0-1.28,0-1.92,0-2-.3-2.24-2.29-1.92,0,0-.1,0-.12,0s-.39.3-.43.48a3.82,3.82,0,0,0,0,1q0,4.72,0,9.47c0,2-.29,1.78,1.9,1.78.94,0,1,0,1-.94,0-1.28,0-2.56,0-3.84,0-.51.2-.72.71-.71,1,0,2,0,3,0,.61,0,.74.3.73.83,0,.91,0,1.83,0,2.75,0,2,0,2,2,1.93.64,0,.82-.26.82-.86C79.77,36.73,79.79,34.89,79.79,33.05Zm127.37,2.43a15.35,15.35,0,0,0,.53,2.19c.85,2.09,3.52,2.44,5.3,2.31.27,0,.54-.17.8-.18a3.47,3.47,0,0,0,3.06-2,3.51,3.51,0,0,0-1.28-5,15.21,15.21,0,0,0-2.45-.9c-.78-.27-1.58-.49-2.35-.79a.81.81,0,0,1-.48-1.16,1.56,1.56,0,0,1,1.17-.91c1.19-.11,2.25.06,2.84,1.24a.73.73,0,0,0,.74.46,9.7,9.7,0,0,0,1.43,0c.2,0,.51-.36.49-.51a3.73,3.73,0,0,0-1.56-2.69,7.05,7.05,0,0,0-5.07-.71,3.46,3.46,0,0,0-2.83,2.74,3.33,3.33,0,0,0,1.39,3.87,7.43,7.43,0,0,0,2.29.94,8.32,8.32,0,0,1,2.92.89c.65.46.72,1.74,0,2a5.71,5.71,0,0,1-2.07.3,2.16,2.16,0,0,1-2-1.43c-.14-.29-.23-.7-.73-.67C208.67,35.5,208,35.48,207.16,35.48ZM83.79,29.16c.3,0,.53-.05.77-.05,1.52,0,3,0,4.56,0,1,0,1,0,1-1v-.36c0-1,0-1-1-1-2.36,0-4.72,0-7.08,0-1.16,0-1.17,0-1.17,1.24V38.13c0,1.27,0,1.28,1.23,1.28q3.6,0,7.2,0c1.19,0,1.19,0,1.19-1.19V38.1c0-1,0-1-1-1-1.2,0-2.4,0-3.6,0-2.62,0-2.17.53-2.23-2.42,0-.53.21-.72.71-.71h3.48c1.8,0,1.66.29,1.68-1.79,0-.62-.22-.87-.85-.85-1.07,0-2.15,0-3.23,0C83.46,31.28,83.46,31.28,83.79,29.16ZM196.28,32c0,1.28,0,2.55,0,3.83a3.55,3.55,0,0,0,2.14,3.43,4.76,4.76,0,0,0,3.75.53,2.94,2.94,0,0,1,.59-.12,3.77,3.77,0,0,0,3.37-3.93c0-2.39,0-4.79,0-7.19,0-1.72,0-1.72-1.69-1.7-1.06,0-1.08,0-1.09,1.07,0,2.24,0,4.47,0,6.71a10.92,10.92,0,0,1-.24,1.39,1.61,1.61,0,0,1-1.55,1.41,1.79,1.79,0,0,1-2-.91,3.65,3.65,0,0,1-.32-1.61c0-2,0-4.08,0-6.12s.31-2-2.05-1.93c-.8,0-.85.07-.86.94C196.26,29.19,196.28,30.59,196.28,32Zm-7.37,2.6h3.83c1.77,0,1.82-.07,1.68-1.78,0-.5-.24-.72-.74-.71-1,0-2,0-3,0-2,0-1.75.36-1.79-1.91,0-.6.26-.76.79-.76,1.24,0,2.48,0,3.72,0,1.71,0,1.71,0,1.61-1.73,0-.8-.08-.86-.92-.86-2,0-4,0-6,0h-1.2c-.44,0-.68.18-.67.63,0,.28,0,.56,0,.84,0,3.23,0,6.47,0,9.7,0,1.85-.41,1.78,1.8,1.77.82,0,.86-.06.87-.92C188.92,37.51,188.91,36.15,188.91,34.59ZM63.64,26.7h-4c-1.31,0-1.31,0-1.29,1.34,0,.12,0,.24,0,.36,0,.51.22.72.72.71h2.15c1,0,1,0,1,1,0,2.51,0,5,0,7.54,0,2-.25,1.75,1.82,1.75.92,0,.93,0,1-.93,0-.2,0-.4,0-.6V30.34c0-1.22,0-1.22,1.27-1.23.48,0,1,0,1.44,0,.95,0,1-.05,1-1.05V27.7c0-1,0-1-1-1Zm46.1,6.4c0,1.75,0,3.51,0,5.27,0,1,0,1,1.08,1h3.94c1.12,0,2.24,0,3.36,0,.49,0,.75-.18.71-.7,0-.2,0-.4,0-.6,0-1,0-1-1.09-1.06-1.36,0-2.71,0-4.07,0-1,0-1,0-1-1,0-2.47,0-4.94,0-7.42,0-2,.47-1.93-2-1.91-.86,0-.9.07-.9,1C109.74,29.51,109.74,31.3,109.74,33.1ZM45.82,26.62c-.85-.85-.87-.85-.37-2a3.58,3.58,0,0,0,.15-3c-.11-.25-.22-.51-.31-.77a3.48,3.48,0,0,0-5.11-1.69,4.33,4.33,0,0,0-1.88,3.68c0,2.29.58,3.47,3.2,4.16A4.31,4.31,0,0,0,44,26.57l.93.74Zm-.33,17.84h0v3.35c0,.43.17.67.64.66s.67-.21.66-.66,0-.63,0-1c0-2-.15-1.77,1.83-1.78.35,0,.72,0,1.07,0,.6,0,.74-.31.74-.83s-.2-.73-.7-.73-1.28,0-1.92,0c-1,0-1,0-1-.87s0-.91,1-.93c.76,0,1.51,0,2.27,0,.41,0,.7-.1.7-.6s-.18-.73-.7-.73c-1.24,0-2.48,0-3.72,0-.63,0-.85.25-.84.85C45.5,42.3,45.49,43.38,45.49,44.46ZM43.24,33.73c0,1.11,0,2.23,0,3.34,0,.5.19.73.7.72,1.23,0,2.47,0,3.7,0,.43,0,.55-.21.53-.6a.6.6,0,0,0-.67-.65c-.68,0-1.35,0-2,0-.95,0-1,0-1-1v-5c0-.43-.2-.68-.64-.7s-.59.3-.59.7Z" transform="translate(-1 -1.93)" fill="#fff"/><path d="M246.84,13.65c-.09-.09-.4-.25-.4-.4,0-.86-.54-.92-1.16-1a5.77,5.77,0,0,1-2.2-1.29c-2.55-1.77-5-3.61-7.56-5.42l-1.28-.92c0-.13,0-.18,0-.21a.11.11,0,0,1,.09-.06c.24,0,.48-.05.71-.05h32.82c-.67.8-1.19,1.48-1.76,2.11-1.89,2.05-3.81,4.07-5.71,6.12-1.31,1.43-2.62,2.86-3.9,4.32-1,1.13-2,2.29-2.95,3.43-.29.33-.61.63-.91,1-.83.9-1.65,1.81-2.42,2.66,3,7.1,5.92,14.1,8.91,21.2H241.59c.21-1.51.42-3,.64-4.51.19-1.26.4-2.51.6-3.76l.93-5.72c.11-.75.2-1.5.31-2.24.32-2.27.66-4.55,1-6.82.24-1.69.45-3.38.69-5.07a18.29,18.29,0,0,1,.41-2.21A5,5,0,0,1,246.84,13.65Z" transform="translate(-1 -1.93)" fill="#fff"/><path d="M5.16,4.33H37.28c-1.45,1.15-2.8,2.23-4.17,3.3q-2.76,2.16-5.55,4.31a15.61,15.61,0,0,1-1.67,1.11c-.32.19-.55.4-.39.75.75,1.63.61,3.41.95,5.11s.63,3.49.93,5.24c.13.78.2,1.57.33,2.35.43,2.66.86,5.31,1.3,8,.08.51.15,1,.22,1.54.17,1.24.32,2.49.5,3.74s.39,2.41.59,3.62c.08.54.19,1.07.3,1.7H12.29c.38-.89.7-1.74,1.1-2.56,1.38-2.9,2.81-5.77,4.18-8.67.92-1.93,1.76-3.89,2.67-5.83.47-1,1-2,1.5-3a.91.91,0,0,0-.11-1.18c-.73-.78-1.35-1.66-2-2.48q-2.44-2.91-4.9-5.81c-.56-.66-1.17-1.29-1.75-1.94-1.54-1.76-3.09-3.51-4.62-5.29-.91-1-1.78-2.12-2.66-3.19A7.56,7.56,0,0,1,5.16,4.33Z" transform="translate(-1 -1.93)" fill="#fff"/><path d="M242.32,12.33H229.08c-.85,0-.84,0-.54-.87.66-1.91,1.29-3.83,2-5.74.19-.55.46-1.07.75-1.72l11.14,8Z" transform="translate(-1 -1.93)" fill="#fff"/><path d="M29.54,12.1c1-.81,1.92-1.58,2.87-2.33l6.73-5.29c.6-.47.73-.41.9.32.36,1.58.77,3.15,1.11,4.73.19.89.28,1.79.42,2.68A96,96,0,0,1,29.54,12.1Z" transform="translate(-1 -1.93)" fill="#fff"/><path d="M107.76,66.08c-.89,0-1.12-.17-1.07-.68a.47.47,0,0,1,0-.12c.22-.12.44-.35.66-.34a16.4,16.4,0,0,1,1.7.2c-.06.18-.06.45-.18.51C108.45,65.85,108,66,107.76,66.08Z" transform="translate(-1 -1.93)" fill="#fff"/><path d="M109.43,67.72c-.83,0-1.59,0-2.36,0-.13,0-.3-.23-.35-.38a.4.4,0,0,1,.2-.36,3.15,3.15,0,0,1,2.39.24C109.38,67.26,109.36,67.43,109.43,67.72Z" transform="translate(-1 -1.93)" fill="#fff"/><path d="M93.4,9.3c-.89,0-1.12-.19-1-.88A.86.86,0,0,1,93,7.94a2,2,0,0,1,.82,0c.76,0,1.32.35,1.21.67-.2.56-.72.66-1.25.71Z" transform="translate(-1 -1.93)" fill="#fff"/><path d="M94.62,7c-.65,0-1.22.12-1.78.11-.14,0-.38-.29-.37-.45s.25-.37.42-.41A1.41,1.41,0,0,1,94.62,7Z" transform="translate(-1 -1.93)" fill="#fff"/><path d="M149.83,6a4.06,4.06,0,0,1,1.14.64c.2.23-.53.68-1.29.71h-.59c-.45,0-.66-.17-.65-.63a.52.52,0,0,1,.6-.57h.72Z" transform="translate(-1 -1.93)" fill="#fff"/><path d="M169,7.5c0-1.32.33-1.6,1.63-1.25.45.13,1,.15,1.17.83.25,1.11-.18,1.79-1.31,1.88A3.85,3.85,0,0,1,170,9c-1,0-1,0-1-1Z" transform="translate(-1 -1.93)" fill="#fff"/><path d="M203.33,9.39c-.86-.1-1-.2-1-.77,0-.42.13-.72.61-.7a10,10,0,0,1,1.54.13.68.68,0,0,1,.45.45c0,.15-.2.41-.37.49A10.39,10.39,0,0,1,203.33,9.39Z" transform="translate(-1 -1.93)" fill="#fff"/><path d="M204.64,6.9a17.45,17.45,0,0,1-1.82.15c-.16,0-.32-.25-.48-.39.14-.15.27-.43.43-.44A1.7,1.7,0,0,1,204.64,6.9Z" transform="translate(-1 -1.93)" fill="#fff"/><path d="M180.21,7.71a1.9,1.9,0,0,1-2.08,1.46c-.08,0-.14-.08-.22-.1-1.19-.4-1.55-.87-1.31-1.71a1.78,1.78,0,0,1,2.18-1.11C179.77,6.48,180.21,6.93,180.21,7.71Z" transform="translate(-1 -1.93)" fill="#fff"/><path d="M159.7,6.76a2.56,2.56,0,0,1-2.18.62c-.42,0-.55-.22-.55-.6s.16-.62.56-.59C158.25,6.24,159.06,5.94,159.7,6.76Z" transform="translate(-1 -1.93)" fill="#fff"/><path d="M139.12,64.92a1.62,1.62,0,0,1,1.77.92,1.25,1.25,0,0,1-.87,1.91,2,2,0,0,1-1.56,0c-.55-.31-1.15-.85-1.12-1.32a1.72,1.72,0,0,1,1.42-1.55C138.88,64.91,139,64.92,139.12,64.92Z" transform="translate(-1 -1.93)" fill="#fff"/><path d="M161.65,66.54c.56,0,1,.33,1.06.72s-.59.76-.92.78-1.15-.51-1.14-.8C160.67,66.73,161,66.52,161.65,66.54Z" transform="translate(-1 -1.93)" fill="#fff"/><path d="M164.51,6.83c.52.8.52.8-.39.85Z" transform="translate(-1 -1.93)" fill="#fff"/><path d="M73.83,6.62l.3,1.06h-.85Z" transform="translate(-1 -1.93)" fill="#fff"/><path d="M127.31,7.8c-.12-.12-.28-.22-.29-.32s.15-.23.23-.34c.11.14.24.27.33.41A2.73,2.73,0,0,1,127.31,7.8Z" transform="translate(-1 -1.93)" fill="#fff"/><path d="M99.67,6.7,100,7.76l-.77-.16.24-.92Z" transform="translate(-1 -1.93)" fill="#fff"/><path d="M115.15,7.69h-.87l.49-1.24Z" transform="translate(-1 -1.93)" fill="#fff"/><path d="M126,66.47l.65-.58.37.65-.86.23Z" transform="translate(-1 -1.93)" fill="#fff"/><path d="M134.94,20.17a21,21,0,0,1,8.52,2.16,10.79,10.79,0,0,1,2.33,1.83A24.4,24.4,0,0,1,149.63,29a2.72,2.72,0,0,1,.31,1c.28,1.39.6,2.77.78,4.17a5.67,5.67,0,0,1-.25,2,14.49,14.49,0,0,1-6.15,9,15.88,15.88,0,0,1-4.62,2.13,23.27,23.27,0,0,1-4.55.69,14.09,14.09,0,0,1-3.52-.44,25,25,0,0,1-4-1.12,7.84,7.84,0,0,1-2.4-1.51,23.87,23.87,0,0,1-4-4,9.09,9.09,0,0,1-1.77-5,18.4,18.4,0,0,1,.1-4.51,13.6,13.6,0,0,1,3.94-6.63,13.79,13.79,0,0,1,8.12-4.14C132.75,20.5,133.85,20.33,134.94,20.17ZM132,34.26a4.36,4.36,0,0,1-2.07.24,11.09,11.09,0,0,1-3.08-1.2c-.9-.41-1.79-.87-2.72-1.19s-1.23-.06-1.35.9a7.13,7.13,0,0,0,.62,4.52,13.52,13.52,0,0,0,1.87,3.13,21.09,21.09,0,0,0,3.74,2.7,6.92,6.92,0,0,0,2.06.81c1.11.27,2.25.43,3.38.63a2.17,2.17,0,0,0,.72,0c.69-.1,1.39-.24,2.08-.36a11.83,11.83,0,0,0,2-.35,16.76,16.76,0,0,0,5.14-3.18,8.59,8.59,0,0,0,2.09-3.23,9.83,9.83,0,0,0,.62-5.3c-1.87.6-3.65,1.14-5.39,1.76a6.28,6.28,0,0,1-3.19.07c-.11,0-.28-.37-.24-.51.12-.38.38-.63.82-.4a2.46,2.46,0,0,0,2.39-.13,8.57,8.57,0,0,1,.89-.33l4.31-1.65a11.2,11.2,0,0,0-2.27-3.79A13.49,13.49,0,0,0,138.11,24a14.87,14.87,0,0,0-3.18-.39A15.39,15.39,0,0,0,128.84,25c-2.37,1.09-3.91,3.06-5.32,5.15-.12.17-.08.44-.13.71A12,12,0,0,1,127,32.17c1.3.78,2.65,1.65,4.33,1.41C131.68,33.52,132,33.74,132,34.26Z" transform="translate(-1 -1.93)"/><path d="M151.11,26.88c.84,0,1.66,0,2.48,0,.17,0,.41.26.48.44a8,8,0,0,1,.32,1.26c.33,1.79.65,3.58,1,5.37.08.42.22.84.38,1.46.39-2.13.73-4.08,1.1-6a19,19,0,0,1,.49-1.94c.07-.2.27-.51.42-.52a15.88,15.88,0,0,1,2.39,0c.16,0,.36.41.41.65.33,1.76.62,3.52.94,5.27.11.56.28,1.11.47,1.87a6.39,6.39,0,0,0,.8-2.76c.27-1.48.55-3,.82-4.44.09-.47.31-.71.81-.68s1,0,1.55,0,.78.18.62.85c-.32,1.31-.69,2.61-1,3.91-.64,2.45-1.29,4.9-1.89,7.36-.14.57-.4.84-1,.82H162c-1.39,0-1.33,0-1.58-1.44-.39-2.12-.88-4.23-1.34-6.46-.68.41-.6,1-.69,1.52-.33,1.75-.56,3.52-.84,5.28-.15.94-.34,1.09-1.35,1.1-.36,0-.72,0-1.08,0s-.68-.25-.8-.72c-.91-3.39-1.86-6.78-2.78-10.17C151.33,28.29,151.26,27.66,151.11,26.88Z" transform="translate(-1 -1.93)"/><path d="M107.39,32.52c.32.41.64.81.94,1.22a3.61,3.61,0,0,1-2.44,5.43,62.34,62.34,0,0,1-6.68.25c-.56,0-.83-.2-.77-.77a1.92,1.92,0,0,0,0-.24q0-5.34,0-10.68c0-1,0-1,1-1q3,0,6,.12a2.65,2.65,0,0,1,2.69,1.94c.35,1.22.49,2.54-.66,3.55C107.43,32.37,107.42,32.46,107.39,32.52Zm-4,1.41c-2.31,0-1.94-.34-2,2.06,0,.16,0,.32,0,.48,0,.4.21.57.59.58a7.6,7.6,0,0,0,3.18-.34,1.24,1.24,0,0,0,.56-.42,1.58,1.58,0,0,0-1.16-2.35A9.43,9.43,0,0,0,103.36,33.93Zm-.46-2.22a16.11,16.11,0,0,0,1.83-.4c.76-.26,1-.61.82-1.22a1.22,1.22,0,0,0-1.17-1c-.72,0-1.43,0-2.15,0s-.82.05-.85.92C101.32,31.6,101.32,31.6,102.9,31.71Z" transform="translate(-1 -1.93)"/><path d="M170.5,32.17v6.21a2.54,2.54,0,0,1,0,.83,1.66,1.66,0,0,1-.47.56c-.05,0-.16,0-.24,0-1.9.16-1.94.12-1.94-1.78V28.3c0-.28,0-.56,0-.84a.53.53,0,0,1,.58-.61,17.39,17.39,0,0,1,1.91,0,1.13,1.13,0,0,1,.78.45c.8,1.4,1.52,2.85,2.31,4.26.56,1,1.16,2,1.85,3.18V28.23a7.85,7.85,0,0,1,0-.84c.08-.75.69-.57,1.11-.53s1.27-.38,1.51.51a2.79,2.79,0,0,1,0,.71V38.64c0,1.14,0,1.14-1.11,1.15-1.8,0-1.77,0-2.63-1.57-1.11-2-2.28-4.07-3.42-6.1Z" transform="translate(-1 -1.93)"/><path d="M227.63,29.36c-.55,0-1,.07-1.4.07-1.36,0-2.72,0-4.08,0-.61,0-.84.23-.84.85,0,1.88-.09,1.61,1.61,1.62,1.19,0,2.39,0,3.59,0,.56,0,.82.21.77.77a.48.48,0,0,0,0,.12c.06,1.6.06,1.6-1.54,1.6-1.15,0-2.31,0-3.47,0-.85,0-.94.08-.94.86,0,2.59-.3,2.08,2,2.12,1.28,0,2.56,0,3.84,0,.82,0,.85.07.89.91,0,.23,0,.48,0,.71,0,.58-.27.8-.8.78H219.5c-.94,0-1,0-1-.91,0-3.68,0-7.35,0-11,0-1,0-1,1-1q3.59,0,7.19,0c.84,0,.87,0,.89.88C227.64,28.24,227.63,28.75,227.63,29.36Z" transform="translate(-1 -1.93)"/><path d="M79.79,33.05c0,1.84,0,3.68,0,5.52,0,.6-.18.84-.82.86-2,.08-2,.1-2-1.93,0-.92,0-1.84,0-2.75,0-.53-.12-.85-.73-.83-1,0-2,0-3,0-.51,0-.72.2-.71.71,0,1.28,0,2.56,0,3.84,0,.91,0,.94-1,.94-2.19,0-1.89.22-1.9-1.78q0-4.74,0-9.47a3.82,3.82,0,0,1,0-1c0-.18.28-.32.43-.48s.08,0,.12,0c2-.32,2.29-.07,2.29,1.92,0,.64,0,1.28,0,1.92,0,.49.18.74.7.73,1,0,2,0,3,0,.51,0,.74-.22.73-.71,0-1,0-2.08,0-3.12,0-.5.16-.71.67-.76,2.08-.19,2.15-.14,2.15,1.93Z" transform="translate(-1 -1.93)"/><path d="M207.16,35.48c.84,0,1.51,0,2.17,0,.5,0,.59.38.73.67a2.16,2.16,0,0,0,2,1.43,5.71,5.71,0,0,0,2.07-.3c.69-.28.62-1.56,0-2a8.32,8.32,0,0,0-2.92-.89,7.43,7.43,0,0,1-2.29-.94,3.33,3.33,0,0,1-1.39-3.87,3.46,3.46,0,0,1,2.83-2.74,7.05,7.05,0,0,1,5.07.71A3.73,3.73,0,0,1,217,30.22c0,.15-.29.47-.49.51a9.7,9.7,0,0,1-1.43,0,.73.73,0,0,1-.74-.46c-.59-1.18-1.65-1.35-2.84-1.24a1.56,1.56,0,0,0-1.17.91.81.81,0,0,0,.48,1.16c.77.3,1.57.52,2.35.79a15.21,15.21,0,0,1,2.45.9,3.51,3.51,0,0,1,1.28,5,3.47,3.47,0,0,1-3.06,2c-.26,0-.53.16-.8.18-1.78.13-4.45-.22-5.3-2.31A15.35,15.35,0,0,1,207.16,35.48Z" transform="translate(-1 -1.93)"/><path d="M83.79,29.16c-.33,2.12-.33,2.12,1.65,2.12,1.08,0,2.16,0,3.23,0,.63,0,.85.23.85.85,0,2.08.12,1.77-1.68,1.79H84.36c-.5,0-.72.18-.71.71.06,2.95-.39,2.37,2.23,2.42,1.2,0,2.4,0,3.6,0,1,0,1,0,1,1v.12c0,1.18,0,1.19-1.19,1.19q-3.6,0-7.2,0c-1.23,0-1.23,0-1.23-1.28V27.94c0-1.22,0-1.23,1.17-1.24,2.36,0,4.72,0,7.08,0,1,0,1,0,1,1v.36c0,1,0,1-1,1-1.52,0-3,0-4.56,0C84.32,29.11,84.09,29.14,83.79,29.16Z" transform="translate(-1 -1.93)"/><path d="M196.28,32c0-1.4,0-2.8,0-4.2,0-.87.06-.93.86-.94,2.36,0,2-.12,2.05,1.93s0,4.08,0,6.12a3.65,3.65,0,0,0,.32,1.61,1.79,1.79,0,0,0,2,.91A1.61,1.61,0,0,0,203.09,36a10.92,10.92,0,0,0,.24-1.39c0-2.24,0-4.47,0-6.71,0-1,0-1.05,1.09-1.07,1.69,0,1.69,0,1.69,1.7,0,2.4,0,4.8,0,7.19a3.77,3.77,0,0,1-3.37,3.93,2.94,2.94,0,0,0-.59.12,4.76,4.76,0,0,1-3.75-.53,3.55,3.55,0,0,1-2.14-3.43C196.3,34.54,196.28,33.27,196.28,32Z" transform="translate(-1 -1.93)"/><path d="M188.91,34.59c0,1.56,0,2.92,0,4.28,0,.86,0,.91-.87.92-2.21,0-1.79.08-1.8-1.77,0-3.23,0-6.47,0-9.7,0-.28,0-.56,0-.84,0-.45.23-.64.67-.63h1.2c2,0,4,0,6,0,.84,0,.88.06.92.86.1,1.72.1,1.72-1.61,1.73-1.24,0-2.48,0-3.72,0-.53,0-.8.16-.79.76,0,2.27-.17,1.88,1.79,1.91,1,0,2,0,3,0,.5,0,.69.21.74.71.14,1.71.09,1.78-1.68,1.78Z" transform="translate(-1 -1.93)"/><path d="M63.64,26.7h4.07c1,0,1,0,1,1v.36c0,1,0,1-1,1.05-.48,0-1,0-1.44,0-1.26,0-1.27,0-1.27,1.23v7.54c0,.2,0,.4,0,.6,0,.89,0,.93-1,.93-2.07,0-1.81.22-1.82-1.75,0-2.51,0-5,0-7.54,0-1,0-1-1-1H59.12c-.5,0-.75-.2-.72-.71,0-.12,0-.24,0-.36,0-1.33,0-1.33,1.29-1.34Z" transform="translate(-1 -1.93)"/><path d="M109.74,33.1c0-1.8,0-3.59,0-5.39,0-.93,0-1,.9-1,2.49,0,2-.13,2,1.91,0,2.48,0,4.95,0,7.42,0,1,0,1,1,1,1.36,0,2.71,0,4.07,0,1.07,0,1.07,0,1.09,1.06,0,.2,0,.4,0,.6,0,.52-.22.7-.71.7-1.12,0-2.24,0-3.36,0h-3.94c-1.07,0-1.08,0-1.08-1C109.74,36.61,109.74,34.85,109.74,33.1Z" transform="translate(-1 -1.93)"/><path d="M45.82,26.62l-.87.69L44,26.57A4.31,4.31,0,0,1,41.5,27c-2.62-.69-3.17-1.87-3.2-4.16a4.33,4.33,0,0,1,1.88-3.68,3.48,3.48,0,0,1,5.11,1.69c.09.26.2.52.31.77a3.58,3.58,0,0,1-.15,3C45,25.77,45,25.77,45.82,26.62Zm-1.9-1.79a5.07,5.07,0,0,0,.33-3.34A2.07,2.07,0,0,0,41.83,20c-1.2.08-1.83.58-2,1.67a11.87,11.87,0,0,0,0,2.15,2.08,2.08,0,0,0,2.82,1.94C42.53,24.42,42.63,24.33,43.92,24.83Z" transform="translate(-1 -1.93)"/><path d="M45.49,44.46c0-1.08,0-2.16,0-3.24,0-.6.21-.87.84-.85,1.24,0,2.48,0,3.72,0,.52,0,.71.24.7.73s-.29.6-.7.6c-.76,0-1.51,0-2.27,0-.94,0-1,.07-1,.93s0,.85,1,.87c.64,0,1.28,0,1.92,0s.71.22.7.73-.14.85-.74.83c-.35,0-.72,0-1.07,0-2,0-1.83-.21-1.83,1.78,0,.32,0,.63,0,1s-.21.64-.66.66-.64-.23-.64-.66V44.46Z" transform="translate(-1 -1.93)"/><path d="M43.24,33.73V30.5c0-.4.09-.72.59-.7s.63.27.64.7v5c0,1,.05,1,1,1,.68,0,1.35,0,2,0a.6.6,0,0,1,.67.65c0,.39-.1.61-.53.6-1.23,0-2.47,0-3.7,0-.51,0-.71-.22-.7-.72C43.25,36,43.24,34.84,43.24,33.73Z" transform="translate(-1 -1.93)"/><path d="M132,34.26c0-.52-.31-.74-.69-.68-1.68.24-3-.63-4.33-1.41a12,12,0,0,0-3.58-1.33c0-.27,0-.54.13-.71,1.41-2.09,3-4.06,5.32-5.15a15.39,15.39,0,0,1,6.09-1.37,14.87,14.87,0,0,1,3.18.39,13.49,13.49,0,0,1,6.29,3.41,11.2,11.2,0,0,1,2.27,3.79l-4.31,1.65a8.57,8.57,0,0,0-.89.33,2.46,2.46,0,0,1-2.39.13c-.44-.23-.7,0-.82.4,0,.14.13.5.24.51a6.28,6.28,0,0,0,3.19-.07c1.74-.62,3.52-1.16,5.39-1.76a9.83,9.83,0,0,1-.62,5.3,8.59,8.59,0,0,1-2.09,3.23,16.76,16.76,0,0,1-5.14,3.18,11.83,11.83,0,0,1-2,.35c-.69.12-1.39.26-2.08.36a2.17,2.17,0,0,1-.72,0c-1.13-.2-2.27-.36-3.38-.63a6.92,6.92,0,0,1-2.06-.81,21.09,21.09,0,0,1-3.74-2.7,13.52,13.52,0,0,1-1.87-3.13,7.13,7.13,0,0,1-.62-4.52c.12-1,.41-1.22,1.35-.9s1.82.78,2.72,1.19a11.09,11.09,0,0,0,3.08,1.2A4.36,4.36,0,0,0,132,34.26Zm2.32,2.4a4.21,4.21,0,0,0-.23,2.73c0,.07.19.16.27.14s.24-.14.24-.22A4.41,4.41,0,0,0,134.31,36.66ZM130,37.81c1-.17,1.63-1,2.41-1.51a.41.41,0,0,0,0-.4.41.41,0,0,0-.4,0c-.69.53-1.36,1.08-2,1.63C129.89,37.54,129.93,37.65,130,37.81Zm.67-9.06c.68,1.76,1.23,2.46,2.14,2.76A11,11,0,0,0,130.63,28.75Zm4.19-.22a4.52,4.52,0,0,0,.1,3.55A12.52,12.52,0,0,0,134.82,28.53Zm2.63,3a5.63,5.63,0,0,0,1.66-2.75A6.49,6.49,0,0,0,137.45,31.56Zm0,3.94-.24.09a3.24,3.24,0,0,0,1.52,2.56Z" transform="translate(-1 -1.93)" fill="#fff"/><path d="M103.36,33.93a9.43,9.43,0,0,1,1.19,0,1.58,1.58,0,0,1,1.16,2.35,1.24,1.24,0,0,1-.56.42,7.6,7.6,0,0,1-3.18.34c-.38,0-.59-.18-.59-.58,0-.16,0-.32,0-.48C101.42,33.59,101.05,34,103.36,33.93Z" transform="translate(-1 -1.93)" fill="#fff"/><path d="M102.9,31.71c-1.58-.11-1.58-.11-1.52-1.68,0-.87,0-.9.85-.92s1.43,0,2.15,0a1.22,1.22,0,0,1,1.17,1c.13.61-.06,1-.82,1.22A16.11,16.11,0,0,1,102.9,31.71Z" transform="translate(-1 -1.93)" fill="#fff"/><path d="M43.92,24.83c-1.29-.5-1.39-.41-1.29,1a2.08,2.08,0,0,1-2.82-1.94,11.87,11.87,0,0,1,0-2.15c.14-1.09.77-1.59,2-1.67a2.07,2.07,0,0,1,2.42,1.46A5.07,5.07,0,0,1,43.92,24.83Z" transform="translate(-1 -1.93)" fill="#fff"/><path d="M134.31,36.66a4.41,4.41,0,0,1,.28,2.65c0,.08-.14.2-.24.22s-.26-.07-.27-.14A4.21,4.21,0,0,1,134.31,36.66Z" transform="translate(-1 -1.93)"/><path d="M130,37.81c0-.16-.07-.27,0-.3.66-.55,1.33-1.1,2-1.63a.41.41,0,0,1,.4,0,.41.41,0,0,1,0,.4C131.59,36.83,131,37.64,130,37.81Z" transform="translate(-1 -1.93)"/><path d="M130.63,28.75a11,11,0,0,1,2.14,2.76C131.86,31.21,131.31,30.51,130.63,28.75Z" transform="translate(-1 -1.93)"/><path d="M134.82,28.53a12.52,12.52,0,0,1,.1,3.55A4.52,4.52,0,0,1,134.82,28.53Z" transform="translate(-1 -1.93)"/><path d="M137.45,31.56a6.49,6.49,0,0,1,1.66-2.75A5.63,5.63,0,0,1,137.45,31.56Z" transform="translate(-1 -1.93)"/><path d="M137.43,35.5l1.28,2.65a3.24,3.24,0,0,1-1.52-2.56Z" transform="translate(-1 -1.93)"/></svg>