<svg xmlns="http://www.w3.org/2000/svg" viewBox="0 0 640 480"><title>barc logo</title><g id="antenna"><line x1="106.23" y1="123.8" x2="545.51" y2="73.25" style="fill:none;stroke:#000;stroke-linecap:round;stroke-miterlimit:10;stroke-width:14px"/><line x1="20.92" y1="55.09" x2="194.1" y2="192.53" style="fill:none;stroke:#000;stroke-linecap:round;stroke-miterlimit:10;stroke-width:7px"/><line x1="239.46" y1="29.95" x2="412.64" y2="167.38" style="fill:none;stroke:#000;stroke-linecap:round;stroke-miterlimit:10;stroke-width:7px"/><line x1="460.02" y1="4.41" x2="633.2" y2="141.84" style="fill:none;stroke:#000;stroke-linecap:round;stroke-miterlimit:10;stroke-width:7px"/></g><g id="tower"><polygon points="318.6 107.23 297.14 128.24 297.14 476.45 345 476.45 345 129.34 318.6 107.23" style="fill:none;stroke:#000;stroke-linecap:round;stroke-miterlimit:10;stroke-width:10px"/><line x1="297.14" y1="131.55" x2="345" y2="131.55" style="fill:none;stroke:#000;stroke-linecap:round;stroke-miterlimit:10;stroke-width:8px"/><polyline points="343.35 174.66 302.09 174.66 341.7 217.78 297.14 217.78" style="fill:none;stroke:#000;stroke-linecap:round;stroke-miterlimit:10;stroke-width:7px"/><polyline points="342.52 218.33 301.27 218.33 340.87 261.44 296.32 261.44" style="fill:none;stroke:#000;stroke-linecap:round;stroke-miterlimit:10;stroke-width:7px"/><polyline points="344.18 261.44 302.92 261.44 342.52 304.55 297.97 304.55" style="fill:none;stroke:#000;stroke-linecap:round;stroke-miterlimit:10;stroke-width:7px"/><polyline points="344.18 304.55 302.92 304.55 342.52 347.66 297.97 347.66" style="fill:none;stroke:#000;stroke-linecap:round;stroke-miterlimit:10;stroke-width:7px"/><polyline points="344.18 347.66 302.92 347.66 342.52 390.78 297.97 390.78" style="fill:none;stroke:#000;stroke-linecap:round;stroke-miterlimit:10;stroke-width:7px"/><polyline points="344.18 390.78 302.92 390.78 342.52 433.89 297.97 433.89" style="fill:none;stroke:#000;stroke-linecap:round;stroke-miterlimit:10;stroke-width:7px"/><polyline points="344.18 433.89 302.92 433.89 342.52 477 297.97 477" style="fill:none;stroke:#000;stroke-linecap:round;stroke-miterlimit:10;stroke-width:7px"/><line x1="320.25" y1="131.55" x2="320.25" y2="174.66" style="fill:none;stroke:#000;stroke-linecap:round;stroke-miterlimit:10;stroke-width:8px"/></g></svg>