<?xml version="1.0" encoding="utf-8"?>
<!-- Generator: Adobe Illustrator 22.0.1, SVG Export Plug-In . SVG Version: 6.00 Build 0)  -->
<svg version="1.1" id="Layer_1" xmlns="http://www.w3.org/2000/svg" xmlns:xlink="http://www.w3.org/1999/xlink" x="0px" y="0px"
	 viewBox="0 0 500 420" style="enable-background:new 0 0 500 420;" xml:space="preserve">
<style type="text/css">
	.st0{fill:none;stroke:#FFFFFF;stroke-width:40;}
	.st1{fill:#FFFFFF;}
</style>
<path class="st0" d="M403.8,263.3c-29.2,41.9-86.9,52.2-128.8,23s-52.2-86.9-23-128.8s86.9-52.2,128.8-23c8.5,5.9,15.9,13.2,22,21.5
	 M473.3,311.7c-56,80.3-166.4,100-246.7,44s-100-166.4-44-246.7S348.9,9,429.2,65c16.2,11.3,30.4,25.3,42.1,41.3"/>
<path class="st1" d="M134,190H51.8V57.5h97.5l30-40H11.8V400l40-26.7V230H134V190z"/>
</svg>
